<svg width="650" height="200" viewBox="0 0 650 200" fill="none" xmlns="http://www.w3.org/2000/svg">
<path d="M650 200H0V40C0 17.9086 17.9086 0 40 0H610C632.091 0 650 17.9086 650 40V200Z" fill="white"/>
<line x1="35" y1="149.5" x2="615" y2="149.5" stroke="#ADBDD0"/>
<path d="M220.041 64L215.135 48.6H217.665L220.635 58.236C220.723 58.4707 220.804 58.7493 220.877 59.072C220.951 59.38 221.017 59.6953 221.075 60.018C221.134 60.3407 221.185 60.6413 221.229 60.92C221.288 61.1987 221.339 61.426 221.383 61.602L220.745 61.58C220.965 60.8027 221.134 60.2013 221.251 59.776C221.383 59.3507 221.486 59.028 221.559 58.808C221.633 58.5733 221.699 58.3753 221.757 58.214L224.529 51.262H226.663L229.347 58.214C229.494 58.566 229.619 58.918 229.721 59.27C229.839 59.6073 229.941 59.952 230.029 60.304C230.117 60.6413 230.213 61.0007 230.315 61.382L229.743 61.536C229.817 61.14 229.868 60.832 229.897 60.612C229.941 60.3773 229.978 60.1867 230.007 60.04C230.037 59.8933 230.066 59.754 230.095 59.622C230.125 59.4753 230.169 59.292 230.227 59.072C230.301 58.852 230.396 58.5513 230.513 58.17L233.439 48.6H235.991L231.085 64H229.435L225.365 54.364L225.563 54.452L221.647 64H220.041ZM238.83 64L244.792 48.6H247.212L253.13 64H250.6L247.08 54.716C247.036 54.6133 246.948 54.364 246.816 53.968C246.699 53.572 246.56 53.132 246.398 52.648C246.237 52.164 246.09 51.724 245.958 51.328C245.826 50.9173 245.738 50.6533 245.694 50.536L246.2 50.514C246.112 50.7633 246.002 51.0787 245.87 51.46C245.753 51.8413 245.621 52.2447 245.474 52.67C245.342 53.0953 245.21 53.4987 245.078 53.88C244.946 54.2467 244.836 54.5547 244.748 54.804L241.25 64H238.83ZM241.47 60.172L242.35 57.884H249.346L250.358 60.172H241.47ZM258.481 64V48.6H265.037C265.917 48.6 266.723 48.82 267.457 49.26C268.205 49.6853 268.799 50.272 269.239 51.02C269.679 51.7533 269.899 52.582 269.899 53.506C269.899 54.342 269.679 55.1193 269.239 55.838C268.799 56.5567 268.212 57.136 267.479 57.576C266.745 58.0013 265.931 58.214 265.037 58.214H260.857V64H258.481ZM267.633 64L263.717 57.048L266.159 56.498L270.515 64.022L267.633 64ZM260.857 55.926H265.257C265.682 55.926 266.063 55.8233 266.401 55.618C266.738 55.398 267.002 55.1047 267.193 54.738C267.383 54.3567 267.479 53.9387 267.479 53.484C267.479 52.9707 267.354 52.5233 267.105 52.142C266.87 51.746 266.533 51.438 266.093 51.218C265.667 50.998 265.183 50.888 264.641 50.888H260.857V55.926ZM276.418 64V48.6H278.75L284.36 57.73L283.238 57.708L288.914 48.6H291.114V64H288.738V57.686C288.738 56.366 288.767 55.178 288.826 54.122C288.899 53.066 289.016 52.0173 289.178 50.976L289.486 51.79L284.448 59.578H282.996L278.112 51.878L278.354 50.976C278.515 51.9587 278.625 52.9707 278.684 54.012C278.757 55.0387 278.794 56.2633 278.794 57.686V64H276.418ZM306.877 64V48.6H313.433C314.313 48.6 315.12 48.82 315.853 49.26C316.601 49.6853 317.195 50.272 317.635 51.02C318.075 51.7533 318.295 52.582 318.295 53.506C318.295 54.342 318.075 55.1193 317.635 55.838C317.195 56.5567 316.609 57.136 315.875 57.576C315.142 58.0013 314.328 58.214 313.433 58.214H309.253V64H306.877ZM316.029 64L312.113 57.048L314.555 56.498L318.911 64.022L316.029 64ZM309.253 55.926H313.653C314.079 55.926 314.46 55.8233 314.797 55.618C315.135 55.398 315.399 55.1047 315.589 54.738C315.78 54.3567 315.875 53.9387 315.875 53.484C315.875 52.9707 315.751 52.5233 315.501 52.142C315.267 51.746 314.929 51.438 314.489 51.218C314.064 50.998 313.58 50.888 313.037 50.888H309.253V55.926ZM324.814 64V48.6H334.516V50.888H327.19V61.712H334.516V64H324.814ZM325.892 57.246V54.958H333.306V57.246H325.892ZM347.854 64.22C346.739 64.22 345.698 64.022 344.73 63.626C343.762 63.2153 342.911 62.6507 342.178 61.932C341.445 61.2133 340.873 60.3773 340.462 59.424C340.066 58.456 339.868 57.4147 339.868 56.3C339.868 55.2 340.066 54.1733 340.462 53.22C340.873 52.2667 341.437 51.438 342.156 50.734C342.889 50.0153 343.74 49.458 344.708 49.062C345.676 48.666 346.717 48.468 347.832 48.468C348.609 48.468 349.365 48.578 350.098 48.798C350.846 49.018 351.521 49.326 352.122 49.722C352.723 50.118 353.215 50.5727 353.596 51.086L352.056 52.692C351.616 52.2667 351.161 51.9147 350.692 51.636C350.237 51.3573 349.768 51.1447 349.284 50.998C348.8 50.8513 348.316 50.778 347.832 50.778C347.04 50.778 346.307 50.9173 345.632 51.196C344.972 51.4747 344.385 51.8633 343.872 52.362C343.373 52.8607 342.985 53.4473 342.706 54.122C342.427 54.782 342.288 55.508 342.288 56.3C342.288 57.0627 342.435 57.7887 342.728 58.478C343.021 59.1527 343.425 59.7467 343.938 60.26C344.466 60.7733 345.067 61.1767 345.742 61.47C346.431 61.7633 347.157 61.91 347.92 61.91C348.492 61.91 349.035 61.8293 349.548 61.668C350.061 61.492 350.516 61.25 350.912 60.942C351.308 60.634 351.616 60.282 351.836 59.886C352.056 59.4753 352.166 59.0427 352.166 58.588V58.148L352.496 58.456H347.788V56.102H354.608C354.637 56.2633 354.659 56.4247 354.674 56.586C354.689 56.7327 354.696 56.8793 354.696 57.026C354.711 57.158 354.718 57.29 354.718 57.422C354.718 58.434 354.542 59.358 354.19 60.194C353.838 61.0153 353.347 61.7267 352.716 62.328C352.1 62.9293 351.374 63.3987 350.538 63.736C349.717 64.0587 348.822 64.22 347.854 64.22ZM358.631 64L364.593 48.6H367.013L372.931 64H370.401L366.881 54.716C366.837 54.6133 366.749 54.364 366.617 53.968C366.499 53.572 366.36 53.132 366.199 52.648C366.037 52.164 365.891 51.724 365.759 51.328C365.627 50.9173 365.539 50.6533 365.495 50.536L366.001 50.514C365.913 50.7633 365.803 51.0787 365.671 51.46C365.553 51.8413 365.421 52.2447 365.275 52.67C365.143 53.0953 365.011 53.4987 364.879 53.88C364.747 54.2467 364.637 54.5547 364.549 54.804L361.051 64H358.631ZM361.271 60.172L362.151 57.884H369.147L370.159 60.172H361.271ZM378.281 64V48.6H384.837C385.717 48.6 386.524 48.82 387.257 49.26C388.005 49.6853 388.599 50.272 389.039 51.02C389.479 51.7533 389.699 52.582 389.699 53.506C389.699 54.342 389.479 55.1193 389.039 55.838C388.599 56.5567 388.012 57.136 387.279 57.576C386.546 58.0013 385.732 58.214 384.837 58.214H380.657V64H378.281ZM387.433 64L383.517 57.048L385.959 56.498L390.315 64.022L387.433 64ZM380.657 55.926H385.057C385.482 55.926 385.864 55.8233 386.201 55.618C386.538 55.398 386.802 55.1047 386.993 54.738C387.184 54.3567 387.279 53.9387 387.279 53.484C387.279 52.9707 387.154 52.5233 386.905 52.142C386.67 51.746 386.333 51.438 385.893 51.218C385.468 50.998 384.984 50.888 384.441 50.888H380.657V55.926ZM396.218 64V48.6H402.246C403.346 48.6 404.336 48.7833 405.216 49.15C406.111 49.5167 406.873 50.0447 407.504 50.734C408.135 51.4233 408.619 52.2373 408.956 53.176C409.293 54.1147 409.462 55.156 409.462 56.3C409.462 57.444 409.293 58.4927 408.956 59.446C408.619 60.3847 408.135 61.1987 407.504 61.888C406.888 62.5627 406.133 63.0833 405.238 63.45C404.343 63.8167 403.346 64 402.246 64H396.218ZM398.594 61.954L398.528 61.712H402.136C402.913 61.712 403.603 61.5873 404.204 61.338C404.82 61.0887 405.333 60.7367 405.744 60.282C406.169 59.8127 406.492 59.2407 406.712 58.566C406.932 57.8913 407.042 57.136 407.042 56.3C407.042 55.464 406.932 54.716 406.712 54.056C406.492 53.3813 406.169 52.8093 405.744 52.34C405.319 51.8707 404.805 51.5113 404.204 51.262C403.603 51.0127 402.913 50.888 402.136 50.888H398.462L398.594 50.69V61.954ZM420.067 64.22C419.231 64.22 418.454 64.11 417.735 63.89C417.031 63.67 416.386 63.34 415.799 62.9C415.227 62.4453 414.714 61.888 414.259 61.228L415.887 59.358C416.606 60.3847 417.295 61.096 417.955 61.492C418.615 61.888 419.4 62.086 420.309 62.086C420.866 62.086 421.372 61.998 421.827 61.822C422.282 61.646 422.641 61.404 422.905 61.096C423.169 60.788 423.301 60.436 423.301 60.04C423.301 59.776 423.257 59.5267 423.169 59.292C423.081 59.0573 422.942 58.8447 422.751 58.654C422.575 58.4633 422.34 58.2873 422.047 58.126C421.768 57.9647 421.438 57.8253 421.057 57.708C420.676 57.576 420.236 57.466 419.737 57.378C418.945 57.2167 418.256 57.004 417.669 56.74C417.082 56.476 416.591 56.146 416.195 55.75C415.799 55.354 415.506 54.9067 415.315 54.408C415.124 53.8947 415.029 53.3227 415.029 52.692C415.029 52.076 415.161 51.504 415.425 50.976C415.704 50.448 416.078 49.9933 416.547 49.612C417.031 49.216 417.596 48.9153 418.241 48.71C418.886 48.49 419.583 48.38 420.331 48.38C421.123 48.38 421.849 48.4827 422.509 48.688C423.169 48.8933 423.756 49.2013 424.269 49.612C424.782 50.008 425.208 50.4993 425.545 51.086L423.873 52.736C423.58 52.252 423.25 51.8487 422.883 51.526C422.516 51.1887 422.113 50.9393 421.673 50.778C421.233 50.602 420.764 50.514 420.265 50.514C419.693 50.514 419.194 50.602 418.769 50.778C418.344 50.954 418.006 51.2033 417.757 51.526C417.522 51.834 417.405 52.2007 417.405 52.626C417.405 52.934 417.464 53.22 417.581 53.484C417.698 53.7333 417.874 53.9607 418.109 54.166C418.358 54.3567 418.688 54.5327 419.099 54.694C419.51 54.8407 420.001 54.9727 420.573 55.09C421.38 55.266 422.098 55.4933 422.729 55.772C423.36 56.036 423.895 56.3513 424.335 56.718C424.775 57.0847 425.105 57.4953 425.325 57.95C425.56 58.4047 425.677 58.896 425.677 59.424C425.677 60.4067 425.45 61.2573 424.995 61.976C424.54 62.6947 423.895 63.252 423.059 63.648C422.223 64.0293 421.226 64.22 420.067 64.22ZM431.463 67.938L430.627 66.926C431.141 66.6327 431.559 66.2953 431.881 65.914C432.204 65.5327 432.365 65.2027 432.365 64.924C432.365 64.7773 432.329 64.6307 432.255 64.484C432.182 64.352 432.028 64.1613 431.793 63.912C431.5 63.6333 431.309 63.3987 431.221 63.208C431.133 63.0173 431.089 62.812 431.089 62.592C431.089 62.24 431.214 61.9613 431.463 61.756C431.713 61.536 432.035 61.426 432.431 61.426C432.798 61.426 433.128 61.536 433.421 61.756C433.729 61.9613 433.964 62.2547 434.125 62.636C434.301 63.0027 434.389 63.428 434.389 63.912C434.389 64.352 434.316 64.7773 434.169 65.188C434.023 65.5987 433.817 65.98 433.553 66.332C433.289 66.684 432.981 66.9993 432.629 67.278C432.277 67.5567 431.889 67.7767 431.463 67.938Z" fill="#5F38FB"/>
<path d="M227.016 92V82.2H228.528V92H227.016ZM227.688 87.828V86.372H232.742V87.828H227.688ZM227.688 83.656V82.2H233.372V83.656H227.688ZM239.979 92.14C239.223 92.14 238.551 91.9813 237.963 91.664C237.384 91.3373 236.927 90.894 236.591 90.334C236.264 89.774 236.101 89.13 236.101 88.402C236.101 87.8233 236.194 87.296 236.381 86.82C236.567 86.344 236.824 85.9333 237.151 85.588C237.487 85.2333 237.883 84.9627 238.341 84.776C238.807 84.58 239.311 84.482 239.853 84.482C240.329 84.482 240.772 84.5753 241.183 84.762C241.593 84.9393 241.948 85.1867 242.247 85.504C242.555 85.8213 242.788 86.1993 242.947 86.638C243.115 87.0673 243.194 87.5387 243.185 88.052L243.171 88.668H237.165L236.843 87.52H241.925L241.715 87.758V87.422C241.687 87.114 241.584 86.8387 241.407 86.596C241.229 86.3533 241.005 86.162 240.735 86.022C240.464 85.882 240.17 85.812 239.853 85.812C239.349 85.812 238.924 85.91 238.579 86.106C238.233 86.2927 237.972 86.5727 237.795 86.946C237.617 87.31 237.529 87.7627 237.529 88.304C237.529 88.8173 237.636 89.2653 237.851 89.648C238.065 90.0213 238.369 90.3107 238.761 90.516C239.153 90.7213 239.605 90.824 240.119 90.824C240.483 90.824 240.819 90.7633 241.127 90.642C241.444 90.5207 241.785 90.3013 242.149 89.984L242.877 91.006C242.653 91.23 242.377 91.426 242.051 91.594C241.733 91.762 241.393 91.8973 241.029 92C240.674 92.0933 240.324 92.14 239.979 92.14ZM247.342 92V82.774H248.784V92H247.342ZM245.816 86.05V84.65H250.492V86.05H245.816ZM256.539 92.14C255.857 92.14 255.246 91.972 254.705 91.636C254.173 91.3 253.748 90.8427 253.431 90.264C253.123 89.6853 252.969 89.0367 252.969 88.318C252.969 87.5993 253.123 86.9507 253.431 86.372C253.748 85.7933 254.173 85.336 254.705 85C255.246 84.664 255.857 84.496 256.539 84.496C257.192 84.496 257.785 84.6313 258.317 84.902C258.858 85.1633 259.269 85.5227 259.549 85.98L258.751 86.96C258.601 86.7453 258.41 86.5493 258.177 86.372C257.943 86.1947 257.696 86.0547 257.435 85.952C257.173 85.8493 256.921 85.798 256.679 85.798C256.231 85.798 255.829 85.91 255.475 86.134C255.129 86.3487 254.854 86.6473 254.649 87.03C254.443 87.4127 254.341 87.842 254.341 88.318C254.341 88.794 254.448 89.2233 254.663 89.606C254.877 89.9793 255.162 90.278 255.517 90.502C255.871 90.726 256.263 90.838 256.693 90.838C256.945 90.838 257.187 90.796 257.421 90.712C257.663 90.628 257.897 90.502 258.121 90.334C258.345 90.166 258.555 89.9607 258.751 89.718L259.549 90.698C259.25 91.118 258.821 91.4633 258.261 91.734C257.71 92.0047 257.136 92.14 256.539 92.14ZM262.589 92V81.64H264.031V86.162L263.779 86.33C263.872 86.0033 264.054 85.7047 264.325 85.434C264.595 85.154 264.917 84.93 265.291 84.762C265.664 84.5847 266.047 84.496 266.439 84.496C266.999 84.496 267.465 84.608 267.839 84.832C268.212 85.0467 268.492 85.378 268.679 85.826C268.865 86.274 268.959 86.8387 268.959 87.52V92H267.517V87.618C267.517 87.198 267.461 86.8527 267.349 86.582C267.237 86.302 267.064 86.1013 266.831 85.98C266.597 85.8493 266.308 85.7933 265.963 85.812C265.683 85.812 265.426 85.8587 265.193 85.952C264.959 86.036 264.754 86.1573 264.577 86.316C264.409 86.4747 264.273 86.6613 264.171 86.876C264.077 87.0813 264.031 87.3053 264.031 87.548V92H263.317C263.195 92 263.074 92 262.953 92C262.831 92 262.71 92 262.589 92ZM273.183 92.154C272.875 92.154 272.637 92.0653 272.469 91.888C272.301 91.7013 272.217 91.44 272.217 91.104C272.217 90.796 272.306 90.544 272.483 90.348C272.66 90.152 272.894 90.054 273.183 90.054C273.491 90.054 273.729 90.1473 273.897 90.334C274.065 90.5113 274.149 90.768 274.149 91.104C274.149 91.412 274.06 91.664 273.883 91.86C273.706 92.056 273.472 92.154 273.183 92.154ZM280.289 92.14C279.682 92.14 279.127 91.972 278.623 91.636C278.128 91.3 277.731 90.8427 277.433 90.264C277.134 89.6853 276.985 89.032 276.985 88.304C276.985 87.5667 277.134 86.9133 277.433 86.344C277.741 85.7653 278.151 85.3127 278.665 84.986C279.187 84.6593 279.771 84.496 280.415 84.496C280.797 84.496 281.147 84.552 281.465 84.664C281.782 84.776 282.057 84.9347 282.291 85.14C282.533 85.336 282.729 85.5647 282.879 85.826C283.037 86.0873 283.135 86.3673 283.173 86.666L282.851 86.554V84.65H284.307V92H282.851V90.25L283.187 90.152C283.131 90.404 283.014 90.6513 282.837 90.894C282.669 91.1273 282.449 91.3373 282.179 91.524C281.917 91.7107 281.623 91.86 281.297 91.972C280.979 92.084 280.643 92.14 280.289 92.14ZM280.667 90.81C281.105 90.81 281.493 90.7027 281.829 90.488C282.165 90.2733 282.426 89.9793 282.613 89.606C282.809 89.2233 282.907 88.7893 282.907 88.304C282.907 87.828 282.809 87.4033 282.613 87.03C282.426 86.6567 282.165 86.3627 281.829 86.148C281.493 85.9333 281.105 85.826 280.667 85.826C280.237 85.826 279.855 85.9333 279.519 86.148C279.192 86.3627 278.931 86.6567 278.735 87.03C278.548 87.4033 278.455 87.828 278.455 88.304C278.455 88.7893 278.548 89.2233 278.735 89.606C278.931 89.9793 279.192 90.2733 279.519 90.488C279.855 90.7027 280.237 90.81 280.667 90.81ZM288.238 92V84.65H289.68V92H288.238ZM288.938 83.026C288.63 83.026 288.392 82.9467 288.224 82.788C288.056 82.6293 287.972 82.4053 287.972 82.116C287.972 81.8453 288.056 81.626 288.224 81.458C288.401 81.29 288.639 81.206 288.938 81.206C289.246 81.206 289.484 81.2853 289.652 81.444C289.82 81.6027 289.904 81.8267 289.904 82.116C289.904 82.3867 289.815 82.606 289.638 82.774C289.47 82.942 289.237 83.026 288.938 83.026ZM299.18 92V90.6H300.762V83.6H299.18V82.2H303.856V83.6H302.274V90.6H303.856V92H299.18ZM307.546 92V84.65H308.988V86.162L308.736 86.33C308.829 86.0033 309.011 85.7047 309.282 85.434C309.552 85.154 309.874 84.93 310.248 84.762C310.621 84.5847 311.004 84.496 311.396 84.496C311.956 84.496 312.422 84.608 312.796 84.832C313.169 85.0467 313.449 85.378 313.636 85.826C313.822 86.274 313.916 86.8387 313.916 87.52V92H312.474V87.618C312.474 87.198 312.418 86.8527 312.306 86.582C312.194 86.302 312.021 86.1013 311.788 85.98C311.554 85.8493 311.265 85.7933 310.92 85.812C310.64 85.812 310.383 85.8587 310.15 85.952C309.916 86.036 309.711 86.1573 309.534 86.316C309.366 86.4747 309.23 86.6613 309.128 86.876C309.034 87.0813 308.988 87.3053 308.988 87.548V92H308.274C308.152 92 308.031 92 307.91 92C307.788 92 307.667 92 307.546 92ZM317.552 92V84.65H318.994V86.162L318.742 86.33C318.835 86.0033 319.017 85.7047 319.288 85.434C319.559 85.154 319.881 84.93 320.254 84.762C320.627 84.5847 321.01 84.496 321.402 84.496C321.962 84.496 322.429 84.608 322.802 84.832C323.175 85.0467 323.455 85.378 323.642 85.826C323.829 86.274 323.922 86.8387 323.922 87.52V92H322.48V87.618C322.48 87.198 322.424 86.8527 322.312 86.582C322.2 86.302 322.027 86.1013 321.794 85.98C321.561 85.8493 321.271 85.7933 320.926 85.812C320.646 85.812 320.389 85.8587 320.156 85.952C319.923 86.036 319.717 86.1573 319.54 86.316C319.372 86.4747 319.237 86.6613 319.134 86.876C319.041 87.0813 318.994 87.3053 318.994 87.548V92H318.28C318.159 92 318.037 92 317.916 92C317.795 92 317.673 92 317.552 92ZM330.862 92.14C330.143 92.14 329.499 91.9767 328.93 91.65C328.37 91.314 327.927 90.8613 327.6 90.292C327.273 89.7133 327.11 89.0553 327.11 88.318C327.11 87.5807 327.273 86.9273 327.6 86.358C327.927 85.7793 328.37 85.3267 328.93 85C329.499 84.664 330.143 84.496 330.862 84.496C331.571 84.496 332.206 84.664 332.766 85C333.335 85.3267 333.783 85.7793 334.11 86.358C334.437 86.9273 334.6 87.5807 334.6 88.318C334.6 89.0553 334.437 89.7133 334.11 90.292C333.783 90.8613 333.335 91.314 332.766 91.65C332.206 91.9767 331.571 92.14 330.862 92.14ZM330.862 90.824C331.301 90.824 331.693 90.7167 332.038 90.502C332.383 90.278 332.654 89.9793 332.85 89.606C333.046 89.2233 333.139 88.794 333.13 88.318C333.139 87.8327 333.046 87.4033 332.85 87.03C332.654 86.6473 332.383 86.3487 332.038 86.134C331.693 85.9193 331.301 85.812 330.862 85.812C330.423 85.812 330.027 85.924 329.672 86.148C329.327 86.3627 329.056 86.6613 328.86 87.044C328.664 87.4173 328.571 87.842 328.58 88.318C328.571 88.794 328.664 89.2233 328.86 89.606C329.056 89.9793 329.327 90.278 329.672 90.502C330.027 90.7167 330.423 90.824 330.862 90.824ZM340.054 92L336.946 84.65H338.5L340.74 90.152L340.474 90.278L342.868 84.65H344.352L341.09 92H340.054ZM349.975 92.14C349.368 92.14 348.813 91.972 348.309 91.636C347.814 91.3 347.417 90.8427 347.119 90.264C346.82 89.6853 346.671 89.032 346.671 88.304C346.671 87.5667 346.82 86.9133 347.119 86.344C347.427 85.7653 347.837 85.3127 348.351 84.986C348.873 84.6593 349.457 84.496 350.101 84.496C350.483 84.496 350.833 84.552 351.151 84.664C351.468 84.776 351.743 84.9347 351.977 85.14C352.219 85.336 352.415 85.5647 352.565 85.826C352.723 86.0873 352.821 86.3673 352.859 86.666L352.537 86.554V84.65H353.993V92H352.537V90.25L352.873 90.152C352.817 90.404 352.7 90.6513 352.523 90.894C352.355 91.1273 352.135 91.3373 351.865 91.524C351.603 91.7107 351.309 91.86 350.983 91.972C350.665 92.084 350.329 92.14 349.975 92.14ZM350.353 90.81C350.791 90.81 351.179 90.7027 351.515 90.488C351.851 90.2733 352.112 89.9793 352.299 89.606C352.495 89.2233 352.593 88.7893 352.593 88.304C352.593 87.828 352.495 87.4033 352.299 87.03C352.112 86.6567 351.851 86.3627 351.515 86.148C351.179 85.9333 350.791 85.826 350.353 85.826C349.923 85.826 349.541 85.9333 349.205 86.148C348.878 86.3627 348.617 86.6567 348.421 87.03C348.234 87.4033 348.141 87.828 348.141 88.304C348.141 88.7893 348.234 89.2233 348.421 89.606C348.617 89.9793 348.878 90.2733 349.205 90.488C349.541 90.7027 349.923 90.81 350.353 90.81ZM358.596 92V82.774H360.038V92H358.596ZM357.07 86.05V84.65H361.746V86.05H357.07ZM364.977 92V84.65H366.419V92H364.977ZM365.677 83.026C365.369 83.026 365.131 82.9467 364.963 82.788C364.795 82.6293 364.711 82.4053 364.711 82.116C364.711 81.8453 364.795 81.626 364.963 81.458C365.14 81.29 365.378 81.206 365.677 81.206C365.985 81.206 366.223 81.2853 366.391 81.444C366.559 81.6027 366.643 81.8267 366.643 82.116C366.643 82.3867 366.554 82.606 366.377 82.774C366.209 82.942 365.976 83.026 365.677 83.026ZM373.62 92.14C372.901 92.14 372.257 91.9767 371.688 91.65C371.128 91.314 370.684 90.8613 370.358 90.292C370.031 89.7133 369.868 89.0553 369.868 88.318C369.868 87.5807 370.031 86.9273 370.358 86.358C370.684 85.7793 371.128 85.3267 371.688 85C372.257 84.664 372.901 84.496 373.62 84.496C374.329 84.496 374.964 84.664 375.524 85C376.093 85.3267 376.541 85.7793 376.868 86.358C377.194 86.9273 377.358 87.5807 377.358 88.318C377.358 89.0553 377.194 89.7133 376.868 90.292C376.541 90.8613 376.093 91.314 375.524 91.65C374.964 91.9767 374.329 92.14 373.62 92.14ZM373.62 90.824C374.058 90.824 374.45 90.7167 374.796 90.502C375.141 90.278 375.412 89.9793 375.608 89.606C375.804 89.2233 375.897 88.794 375.888 88.318C375.897 87.8327 375.804 87.4033 375.608 87.03C375.412 86.6473 375.141 86.3487 374.796 86.134C374.45 85.9193 374.058 85.812 373.62 85.812C373.181 85.812 372.784 85.924 372.43 86.148C372.084 86.3627 371.814 86.6613 371.618 87.044C371.422 87.4173 371.328 87.842 371.338 88.318C371.328 88.794 371.422 89.2233 371.618 89.606C371.814 89.9793 372.084 90.278 372.43 90.502C372.784 90.7167 373.181 90.824 373.62 90.824ZM380.609 92V84.65H382.051V86.162L381.799 86.33C381.892 86.0033 382.074 85.7047 382.345 85.434C382.615 85.154 382.937 84.93 383.311 84.762C383.684 84.5847 384.067 84.496 384.459 84.496C385.019 84.496 385.485 84.608 385.859 84.832C386.232 85.0467 386.512 85.378 386.699 85.826C386.885 86.274 386.979 86.8387 386.979 87.52V92H385.537V87.618C385.537 87.198 385.481 86.8527 385.369 86.582C385.257 86.302 385.084 86.1013 384.851 85.98C384.617 85.8493 384.328 85.7933 383.983 85.812C383.703 85.812 383.446 85.8587 383.213 85.952C382.979 86.036 382.774 86.1573 382.597 86.316C382.429 86.4747 382.293 86.6613 382.191 86.876C382.097 87.0813 382.051 87.3053 382.051 87.548V92H381.337C381.215 92 381.094 92 380.973 92C380.851 92 380.73 92 380.609 92ZM396.583 92V82.2H398.095V90.544H402.687V92H396.583ZM408.834 92.14C408.228 92.14 407.672 91.972 407.168 91.636C406.674 91.3 406.277 90.8427 405.978 90.264C405.68 89.6853 405.53 89.032 405.53 88.304C405.53 87.5667 405.68 86.9133 405.978 86.344C406.286 85.7653 406.697 85.3127 407.21 84.986C407.733 84.6593 408.316 84.496 408.96 84.496C409.343 84.496 409.693 84.552 410.01 84.664C410.328 84.776 410.603 84.9347 410.836 85.14C411.079 85.336 411.275 85.5647 411.424 85.826C411.583 86.0873 411.681 86.3673 411.718 86.666L411.396 86.554V84.65H412.852V92H411.396V90.25L411.732 90.152C411.676 90.404 411.56 90.6513 411.382 90.894C411.214 91.1273 410.995 91.3373 410.724 91.524C410.463 91.7107 410.169 91.86 409.842 91.972C409.525 92.084 409.189 92.14 408.834 92.14ZM409.212 90.81C409.651 90.81 410.038 90.7027 410.374 90.488C410.71 90.2733 410.972 89.9793 411.158 89.606C411.354 89.2233 411.452 88.7893 411.452 88.304C411.452 87.828 411.354 87.4033 411.158 87.03C410.972 86.6567 410.71 86.3627 410.374 86.148C410.038 85.9333 409.651 85.826 409.212 85.826C408.783 85.826 408.4 85.9333 408.064 86.148C407.738 86.3627 407.476 86.6567 407.28 87.03C407.094 87.4033 407 87.828 407 88.304C407 88.7893 407.094 89.2233 407.28 89.606C407.476 89.9793 407.738 90.2733 408.064 90.488C408.4 90.7027 408.783 90.81 409.212 90.81ZM420.41 92.14C420.092 92.14 419.775 92.0887 419.458 91.986C419.15 91.8833 418.865 91.748 418.604 91.58C418.352 91.4027 418.137 91.2113 417.96 91.006C417.792 90.7913 417.68 90.5767 417.624 90.362L417.988 90.166V91.958H416.546V81.64H417.988V86.33L417.764 86.204C417.81 85.9893 417.913 85.784 418.072 85.588C418.23 85.3827 418.431 85.2007 418.674 85.042C418.926 84.874 419.196 84.7433 419.486 84.65C419.775 84.5473 420.069 84.496 420.368 84.496C421.03 84.496 421.618 84.6593 422.132 84.986C422.645 85.3127 423.051 85.7653 423.35 86.344C423.648 86.9133 423.798 87.5667 423.798 88.304C423.798 89.0413 423.648 89.6993 423.35 90.278C423.06 90.8567 422.659 91.314 422.146 91.65C421.632 91.9767 421.054 92.14 420.41 92.14ZM420.172 90.824C420.601 90.824 420.984 90.7167 421.32 90.502C421.656 90.278 421.922 89.9793 422.118 89.606C422.314 89.2233 422.412 88.7893 422.412 88.304C422.412 87.828 422.314 87.4033 422.118 87.03C421.931 86.6473 421.67 86.3487 421.334 86.134C420.998 85.9193 420.61 85.812 420.172 85.812C419.733 85.812 419.346 85.9193 419.01 86.134C418.674 86.3487 418.408 86.6473 418.212 87.03C418.016 87.4033 417.918 87.828 417.918 88.304C417.918 88.7893 418.016 89.2233 418.212 89.606C418.408 89.9793 418.674 90.278 419.01 90.502C419.346 90.7167 419.733 90.824 420.172 90.824Z" fill="#000D3D"/>
<g clip-path="url(#clip0_184_6)">
<path d="M357.115 181.713C357.026 181.647 356.922 181.598 356.812 181.559C356.949 181.498 357.065 181.41 357.153 181.295C357.274 181.135 357.335 180.943 357.335 180.717C357.335 180.491 357.285 180.31 357.192 180.156C357.092 180.002 356.955 179.886 356.768 179.804C356.581 179.727 356.35 179.688 356.08 179.688H354.325V183.815H356.14C356.355 183.815 356.553 183.788 356.724 183.738C356.894 183.683 357.043 183.606 357.17 183.507C357.296 183.402 357.39 183.276 357.456 183.122C357.522 182.968 357.555 182.792 357.555 182.594C357.555 182.406 357.516 182.236 357.439 182.087C357.362 181.939 357.258 181.818 357.12 181.719M355.067 180.381H355.948C356.151 180.381 356.306 180.425 356.416 180.513C356.52 180.602 356.575 180.723 356.575 180.882C356.575 180.981 356.553 181.069 356.504 181.141C356.454 181.218 356.394 181.273 356.306 181.317C356.223 181.361 356.124 181.383 356.008 181.383H355.073V180.381H355.067ZM356.702 182.869C356.647 182.951 356.57 183.017 356.471 183.061C356.372 183.105 356.251 183.127 356.102 183.127H355.067V182.043H356.069C356.212 182.043 356.339 182.065 356.449 182.104C356.553 182.148 356.636 182.203 356.691 182.285C356.746 182.362 356.779 182.456 356.779 182.566C356.779 182.682 356.751 182.786 356.702 182.869Z" fill="#0B1539"/>
<path d="M361.643 179.688L360.62 181.3L359.497 179.688H358.6L360.229 181.988V183.815H360.994V181.977L362.507 179.688H361.643Z" fill="#0B1539"/>
<path d="M367.075 179.688H366.723V183.815H367.488V182.126H369.205V181.427H367.488V180.398H369.458V179.688H367.488H367.075Z" fill="#0B1539"/>
<path d="M372.604 182.049H374.25V181.361H372.604V180.387H374.553V179.688H371.851V183.815H374.575V183.122H372.604V182.049Z" fill="#0B1539"/>
<path d="M376.866 180.398H378.043V183.815H378.808V180.398H380.024V179.688H376.866V180.398Z" fill="#0B1539"/>
<path d="M382.67 180.761C382.785 180.64 382.923 180.546 383.082 180.48C383.242 180.414 383.412 180.381 383.594 180.381C383.715 180.381 383.836 180.397 383.952 180.436C384.067 180.474 384.177 180.529 384.287 180.601C384.397 180.673 384.502 180.761 384.601 180.871L385.091 180.337C384.986 180.199 384.854 180.078 384.695 179.974C384.535 179.869 384.364 179.787 384.177 179.726C383.99 179.665 383.792 179.638 383.594 179.638C383.297 179.638 383.027 179.693 382.774 179.798C382.521 179.902 382.301 180.051 382.114 180.243C381.927 180.436 381.778 180.662 381.673 180.915C381.569 181.168 381.514 181.448 381.514 181.746C381.514 182.043 381.563 182.34 381.662 182.604C381.762 182.863 381.905 183.094 382.086 183.281C382.268 183.473 382.482 183.617 382.73 183.721C382.978 183.82 383.253 183.875 383.55 183.875C383.743 183.875 383.935 183.853 384.128 183.804C384.32 183.754 384.496 183.688 384.656 183.6C384.816 183.512 384.937 183.418 385.036 183.314L384.656 182.709C384.568 182.797 384.474 182.868 384.37 182.934C384.265 183 384.155 183.05 384.029 183.083C383.908 183.116 383.781 183.138 383.655 183.138C383.456 183.138 383.269 183.105 383.104 183.039C382.939 182.973 382.796 182.879 382.675 182.758C382.554 182.637 382.46 182.494 382.4 182.323C382.339 182.153 382.301 181.966 382.301 181.757C382.301 181.547 382.334 181.366 382.4 181.201C382.466 181.036 382.559 180.887 382.675 180.766" fill="#0B1539"/>
<path d="M389.648 181.4H387.766V179.688H387.001V183.815H387.766V182.121H389.648V183.815H390.412V179.688H389.648V181.4Z" fill="#0B1539"/>
<path d="M393.085 182.94C392.953 182.94 392.843 182.984 392.766 183.072C392.684 183.16 392.645 183.276 392.645 183.413C392.645 183.562 392.684 183.677 392.761 183.76C392.838 183.842 392.948 183.881 393.091 183.881C393.223 183.881 393.333 183.837 393.41 183.749C393.493 183.661 393.531 183.545 393.531 183.408C393.531 183.254 393.493 183.138 393.416 183.055C393.339 182.973 393.229 182.934 393.091 182.934" fill="#0B1539"/>
<path d="M397.292 179.688L395.685 183.815H396.45L396.807 182.874H398.458L398.816 183.815H399.614L398.018 179.688H397.297H397.292ZM397.06 182.208L397.336 181.487C397.363 181.41 397.396 181.322 397.429 181.223C397.462 181.124 397.495 181.025 397.534 180.915C397.572 180.811 397.6 180.706 397.633 180.607V180.579C397.671 180.684 397.704 180.794 397.743 180.91C397.781 181.031 397.82 181.141 397.853 181.245C397.886 181.344 397.913 181.421 397.93 181.471L398.211 182.208H397.066H397.06Z" fill="#0B1539"/>
<path d="M401.997 179.677H401.221V183.815H401.997V179.677Z" fill="#0B1539"/>
<path d="M376.697 157H374.81V171.016H376.697V157Z" fill="#5F38FB"/>
<path d="M387.504 161.985C386.706 160.945 385.402 160.356 383.839 160.356C381.022 160.356 378.892 162.695 378.892 165.804C378.892 168.913 381.016 171.23 383.839 171.23C385.407 171.23 386.712 170.647 387.504 169.607V171.021H389.392V160.565H387.504V161.985ZM384.191 169.381C382.238 169.381 380.818 167.879 380.818 165.804C380.818 163.73 382.238 162.205 384.191 162.205C386.145 162.205 387.499 163.785 387.499 165.804C387.499 167.824 386.079 169.381 384.191 169.381Z" fill="#5F38FB"/>
<path d="M397.555 160.357C396.019 160.357 394.688 160.957 393.895 161.986V157H392.008V171.016H393.835V169.597C394.633 170.637 395.959 171.22 397.56 171.22C400.378 171.22 402.507 168.887 402.507 165.794C402.507 162.701 400.383 160.346 397.56 160.346M397.203 169.382C395.315 169.382 393.895 167.841 393.895 165.805C393.895 163.769 395.348 162.206 397.203 162.206C399.156 162.206 400.57 163.719 400.57 165.805C400.57 167.891 399.151 169.382 397.203 169.382Z" fill="#5F38FB"/>
<path d="M271.79 160.565H269.902V171.021H271.79V160.565Z" fill="#000D3D"/>
<path d="M279.667 160.357C278.291 160.357 277.064 160.94 276.299 161.947V160.566H274.411V171.022H276.299V165.161C276.299 163.477 277.559 162.206 279.232 162.206C280.905 162.206 281.604 163.02 281.604 164.93V171.022H283.491V164.721C283.491 161.826 282.204 160.357 279.672 160.357" fill="#000D3D"/>
<path d="M291.194 160.357C289.818 160.357 288.591 160.946 287.826 161.947V160.566H285.939V171.022H287.826V165.161C287.826 163.477 289.086 162.206 290.759 162.206C292.432 162.206 293.131 163.02 293.131 164.93V171.022H295.019V164.721C295.019 161.826 293.731 160.357 291.2 160.357" fill="#000D3D"/>
<path d="M302.535 160.357C299.459 160.357 297.048 162.751 297.048 165.805C297.048 168.859 299.459 171.231 302.535 171.231C305.611 171.231 308.021 168.848 308.021 165.805C308.021 162.762 305.611 160.357 302.535 160.357ZM302.535 169.382C300.504 169.382 298.974 167.841 298.974 165.805C298.974 163.769 300.504 162.206 302.535 162.206C304.565 162.206 306.09 163.752 306.09 165.805C306.09 167.858 304.56 169.382 302.535 169.382Z" fill="#000D3D"/>
<path d="M314.774 167.136C314.526 167.692 314.317 168.303 314.185 168.71C314.053 168.303 313.844 167.692 313.596 167.136L310.68 160.566H308.743L313.36 171.082H315.016L319.611 160.566H317.674L314.779 167.136H314.774Z" fill="#000D3D"/>
<path d="M328.938 161.986C328.14 160.946 326.836 160.357 325.273 160.357C322.455 160.357 320.326 162.696 320.326 165.805C320.326 168.914 322.45 171.231 325.273 171.231C326.841 171.231 328.145 170.648 328.938 169.607V171.022H330.825V160.566H328.938V161.986ZM325.631 169.382C323.677 169.382 322.263 167.88 322.263 165.805C322.263 163.73 323.683 162.206 325.631 162.206C327.579 162.206 328.938 163.785 328.938 165.805C328.938 167.825 327.518 169.382 325.631 169.382Z" fill="#000D3D"/>
<path d="M350.871 160.357C347.795 160.357 345.385 162.751 345.385 165.805C345.385 168.859 347.795 171.231 350.871 171.231C353.948 171.231 356.358 168.848 356.358 165.805C356.358 162.762 353.948 160.357 350.871 160.357ZM350.871 169.382C348.841 169.382 347.311 167.841 347.311 165.805C347.311 163.769 348.841 162.206 350.871 162.206C352.902 162.206 354.432 163.752 354.432 165.805C354.432 167.858 352.902 169.382 350.871 169.382Z" fill="#000D3D"/>
<path d="M363.743 160.357C362.368 160.357 361.14 160.94 360.37 161.947V160.566H358.482V171.022H360.37V165.161C360.37 163.477 361.63 162.206 363.303 162.206C364.976 162.206 365.675 163.02 365.675 164.93V171.022H367.562V164.721C367.562 161.826 366.275 160.357 363.743 160.357Z" fill="#000D3D"/>
<path d="M336.559 169.585C335.916 169.585 335.426 169.15 335.426 167.895V162.293H338.887V160.632H335.426V158.485H333.494V167.89C333.494 170.267 334.589 171.346 336.532 171.346C337.253 171.346 338.144 171.06 338.92 170.416L337.704 169.2C337.396 169.447 336.989 169.585 336.554 169.585" fill="#000D3D"/>
<path d="M271.796 157.17H269.898V159.069H271.796V157.17Z" fill="#000D3D"/>
<path d="M343.263 160.566H341.376V171.021H343.263V160.566Z" fill="#000D3D"/>
<path d="M343.262 157.17H341.363V159.069H343.262V157.17Z" fill="#000D3D"/>
<path d="M261.213 164.534C261.339 164.726 261.411 164.952 261.411 165.189C261.411 165.502 261.29 165.799 261.064 166.019C260.839 166.24 260.547 166.361 260.233 166.361C260.002 166.361 259.771 166.295 259.578 166.163C259.386 166.036 259.237 165.849 259.144 165.634C259.056 165.42 259.034 165.183 259.078 164.957C259.122 164.732 259.237 164.517 259.402 164.358C259.567 164.193 259.776 164.082 260.002 164.038C260.228 163.994 260.464 164.016 260.679 164.104C260.894 164.193 261.075 164.347 261.207 164.539L261.213 164.534Z" fill="#E85D2E"/>
<path d="M260.687 170.053C260.472 169.965 260.236 169.943 260.01 169.987C259.784 170.031 259.575 170.147 259.41 170.306C259.245 170.472 259.135 170.681 259.086 170.906C259.041 171.132 259.064 171.369 259.152 171.583C259.24 171.798 259.388 171.979 259.586 172.111C259.779 172.238 260.005 172.31 260.241 172.31C260.555 172.31 260.852 172.188 261.072 171.968C261.292 171.748 261.419 171.451 261.419 171.137C261.419 170.906 261.353 170.675 261.221 170.483C261.089 170.29 260.907 170.141 260.692 170.048L260.687 170.053Z" fill="#23C765"/>
<path d="M254.819 170.053C254.605 169.965 254.368 169.943 254.143 169.987C253.917 170.031 253.708 170.147 253.543 170.306C253.378 170.472 253.268 170.681 253.218 170.906C253.174 171.132 253.196 171.369 253.284 171.583C253.372 171.798 253.521 171.979 253.719 172.111C253.911 172.238 254.137 172.31 254.374 172.31C254.687 172.31 254.984 172.188 255.205 171.968C255.425 171.748 255.551 171.451 255.551 171.137C255.551 170.906 255.485 170.675 255.353 170.483C255.221 170.29 255.039 170.141 254.825 170.048L254.819 170.053Z" fill="#5F38FB"/>
<path fill-rule="evenodd" clip-rule="evenodd" d="M255.859 157.903H252.882V160.88H255.859V157.903ZM258.588 157.903H261.411V160.726H258.588V157.903ZM252.959 163.78H255.782V166.603H252.959V163.78ZM247.01 157.908H250.147V161.045H247.01V157.908ZM249.822 169.492H246.999V172.315H249.822V169.492ZM246.999 163.703H249.976V166.68H246.999V163.703Z" fill="url(#paint0_linear_184_6)"/>
</g>
<path d="M30.0779 121.834C31.1228 117.888 31.1796 113.759 31.227 109.68C31.2648 106.706 30.9523 96.9643 30.6966 94" stroke="#010E3E" stroke-width="0.766245" stroke-linecap="round" stroke-linejoin="round"/>
<path d="M27 97.5136L30.6114 94C31.8521 94.9028 33.0896 95.8089 34.3302 96.7117" stroke="#010E3E" stroke-width="0.766245" stroke-linecap="round" stroke-linejoin="round"/>
<path d="M28.2404 119.858C37.9952 119.934 47.7531 119.665 57.4889 119.053C60.0807 118.889 62.6725 118.702 65.2674 118.781" stroke="#010E3E" stroke-width="0.766245" stroke-linecap="round" stroke-linejoin="round"/>
<path d="M62.0156 116.199C63.2278 117.219 64.5474 118.109 65.9459 118.851C64.7558 119.564 63.594 120.328 62.4702 121.14" stroke="#010E3E" stroke-width="0.766245" stroke-linecap="round" stroke-linejoin="round"/>
<path d="M30.7568 119.428C33.6453 113.301 37.0295 106.621 39.6497 100.374C41.1682 106.826 46.4402 111.786 48.5363 118.074C50.6577 112.78 52.7823 107.489 54.91 102.198C56.217 103.657 60.0905 108.704 61.167 110.087C63.3357 107.009 65.3877 103.846 67.3165 100.61" stroke="#ADBDD0" stroke-width="0.766245" stroke-linecap="round" stroke-linejoin="round"/>
<path d="M30.7568 119.65C34.8355 114.302 40.5084 108.689 45.2311 103.9C47.6366 105.545 58.6762 113.942 60.3935 115.366C61.3974 114.693 66.3663 107.764 68.2163 105.333" stroke="#E85D2E" stroke-width="0.766245" stroke-linecap="round" stroke-linejoin="round"/>
<path d="M590.946 45.8819C588.076 50.0882 585.273 54.3392 582.547 58.6394C582.587 58.5366 582.631 58.4338 582.672 58.331" fill="#F1EDFF"/>
<path d="M590.946 45.8819C588.076 50.0882 585.273 54.3392 582.547 58.6394C582.587 58.5366 582.631 58.4338 582.672 58.331" stroke="#010E3E" stroke-width="1.3" stroke-linecap="round" stroke-linejoin="round"/>
<path d="M606.405 46.8198L606.004 41.8405L590.952 45.9041L601.426 56.5494L601.884 56.0916L602.799 55.0614L603.314 54.3746C603.505 54.1266 603.944 53.5733 604.173 53.3444C604.402 53.1154 604.574 52.4859 604.631 52.1997L605.318 50.9406L606.004 48.8802L606.405 46.8198Z" fill="#F1EDFF"/>
<path d="M576.816 37.072C574.17 41.6806 574.545 47.666 577.102 52.3238C579.225 56.1859 582.864 59.2926 587.146 60.3341C589.918 61.0091 592.863 60.808 595.59 59.981C599.689 58.7339 603.408 55.9401 605.263 52.0735C606.224 50.0664 606.667 47.8359 606.756 45.6142C606.85 43.3747 606.587 41.0861 605.684 39.0299C604.776 36.9602 603.274 35.2169 601.75 33.5496C598.375 29.8439 593.386 29.5712 588.63 30.3624C583.897 31.1491 579.337 32.669 576.807 37.0764L576.816 37.072Z" stroke="#010E3E" stroke-width="1.3" stroke-linecap="round" stroke-linejoin="round"/>
<path d="M583.839 31.6214C584.759 33.2798 584.813 33.4944 585.676 35.1841C587.701 39.1445 589.212 42.3898 591.192 45.5591C591.465 45.0361 592.341 34.7415 592.443 30.3966" stroke="#010E3E" stroke-width="1.3" stroke-linecap="round" stroke-linejoin="round"/>
<path d="M605.786 41.7643C601.691 42.7924 597.61 43.892 593.551 45.0632C592.8 45.2778 592.049 45.4968 591.33 45.8008C591.271 45.8276 591.204 45.8589 591.191 45.9259C591.182 45.9796 591.218 46.0287 591.254 46.0734C592.899 48.0313 594.548 49.9937 596.39 51.7683C597.163 52.5148 600.98 55.9746 601.664 56.6004" fill="#F1EDFF"/>
<path d="M605.786 41.7643C601.691 42.7924 597.61 43.892 593.551 45.0632C592.8 45.2778 592.049 45.4968 591.33 45.8008C591.271 45.8276 591.204 45.8589 591.191 45.9259C591.182 45.9796 591.218 46.0287 591.254 46.0734C592.899 48.0313 594.548 49.9937 596.39 51.7683C597.163 52.5148 600.98 55.9746 601.664 56.6004" stroke="#3918BE" stroke-width="1.3" stroke-linecap="round" stroke-linejoin="round"/>
<path d="M595.544 44.5091C594.905 46.3865 594.566 47.5845 594.338 49.5558" stroke="#3918BE" stroke-width="1.3" stroke-linecap="round" stroke-linejoin="round"/>
<path d="M598.5 44.2897L596.377 51.406Z" fill="#F1EDFF"/>
<path d="M598.5 44.2897L596.377 51.406" stroke="#3918BE" stroke-width="1.3" stroke-linecap="round" stroke-linejoin="round"/>
<path d="M601.441 43.4899C601.37 45.4791 600.561 47.352 599.966 49.2518C599.622 50.347 598.857 52.7161 598.652 53.8471" fill="#F1EDFF"/>
<path d="M601.441 43.4899C601.37 45.4791 600.561 47.352 599.966 49.2518C599.622 50.347 598.857 52.7161 598.652 53.8471" stroke="#3918BE" stroke-width="1.3" stroke-linecap="round" stroke-linejoin="round"/>
<path d="M604.551 42.2201C604.426 43.7712 603.782 46.3147 603.514 47.8479C603.072 50.4048 602.231 53.0913 601.784 55.6482" fill="#F1EDFF"/>
<path d="M604.551 42.2201C604.426 43.7712 603.782 46.3147 603.514 47.8479C603.072 50.4048 602.231 53.0913 601.784 55.6482" stroke="#3918BE" stroke-width="1.3" stroke-linecap="round" stroke-linejoin="round"/>
<defs>
<linearGradient id="paint0_linear_184_6" x1="247.079" y1="157.826" x2="261.387" y2="172.409" gradientUnits="userSpaceOnUse">
<stop stop-color="#3918BE"/>
<stop offset="1" stop-color="#5F38FB"/>
</linearGradient>
<clipPath id="clip0_184_6">
<rect width="155.501" height="26.8817" fill="white" transform="translate(247 157)"/>
</clipPath>
</defs>
</svg>
