<svg width="650" height="280" viewBox="0 0 650 280" fill="none" xmlns="http://www.w3.org/2000/svg">
<g clip-path="url(#clip0_184_5)">
<path d="M650 240C650 262.091 632.091 280 610 280H40C17.9086 280 0 262.091 0 240V0H650V240Z" fill="white"/>
<g clip-path="url(#clip1_184_5)">
<path d="M406.286 167.783C406.066 167.618 405.805 167.494 405.53 167.398C405.874 167.246 406.162 167.026 406.383 166.737C406.685 166.338 406.837 165.857 406.837 165.293C406.837 164.729 406.713 164.275 406.479 163.89C406.231 163.504 405.887 163.215 405.42 163.009C404.952 162.816 404.374 162.72 403.7 162.72H399.311V173.038H403.851C404.388 173.038 404.883 172.969 405.309 172.845C405.736 172.708 406.107 172.515 406.424 172.268C406.74 172.006 406.974 171.69 407.139 171.305C407.304 170.919 407.387 170.479 407.387 169.984C407.387 169.516 407.291 169.09 407.098 168.718C406.905 168.347 406.644 168.044 406.3 167.797M401.169 164.454H403.37C403.879 164.454 404.264 164.564 404.539 164.784C404.8 165.004 404.938 165.307 404.938 165.705C404.938 165.953 404.883 166.173 404.759 166.352C404.635 166.545 404.484 166.682 404.264 166.792C404.058 166.902 403.81 166.957 403.521 166.957H401.182V164.454H401.169ZM405.254 170.672C405.117 170.878 404.924 171.043 404.677 171.153C404.429 171.263 404.126 171.318 403.755 171.318H401.169V168.608H403.672C404.03 168.608 404.346 168.663 404.622 168.76C404.883 168.87 405.089 169.007 405.227 169.214C405.364 169.406 405.447 169.64 405.447 169.915C405.447 170.204 405.378 170.465 405.254 170.672Z" fill="#0B1539"/>
<path d="M417.608 162.72L415.049 166.751L412.243 162.72H410L414.072 168.471V173.038H415.985V168.443L419.768 162.72H417.608Z" fill="#0B1539"/>
<path d="M431.187 162.721H430.307V173.039H432.219V168.815H436.511V167.068H432.219V164.495H437.144V162.721H432.219H431.187Z" fill="#0B1539"/>
<path d="M445.011 168.623H449.125V166.903H445.011V164.468H449.881V162.721H443.127V173.039H449.936V171.305H445.011V168.623Z" fill="#0B1539"/>
<path d="M455.664 164.495H458.608V173.039H460.52V164.495H463.561V162.721H455.664V164.495Z" fill="#0B1539"/>
<path d="M470.174 165.401C470.463 165.099 470.807 164.865 471.206 164.7C471.605 164.535 472.031 164.452 472.485 164.452C472.788 164.452 473.09 164.493 473.379 164.59C473.668 164.686 473.943 164.824 474.218 165.002C474.494 165.181 474.755 165.401 475.003 165.677L476.227 164.342C475.966 163.998 475.635 163.696 475.236 163.434C474.838 163.173 474.411 162.966 473.943 162.815C473.476 162.664 472.98 162.595 472.485 162.595C471.742 162.595 471.068 162.733 470.435 162.994C469.802 163.255 469.252 163.627 468.784 164.108C468.317 164.59 467.945 165.154 467.684 165.787C467.422 166.419 467.285 167.121 467.285 167.864C467.285 168.607 467.409 169.35 467.656 170.01C467.904 170.657 468.262 171.235 468.716 171.702C469.17 172.184 469.706 172.541 470.325 172.803C470.944 173.051 471.632 173.188 472.375 173.188C472.856 173.188 473.338 173.133 473.819 173.009C474.301 172.885 474.741 172.72 475.14 172.5C475.539 172.28 475.842 172.046 476.089 171.785L475.14 170.272C474.92 170.492 474.686 170.67 474.425 170.836C474.163 171.001 473.888 171.124 473.572 171.207C473.269 171.29 472.953 171.345 472.636 171.345C472.141 171.345 471.673 171.262 471.261 171.097C470.848 170.932 470.49 170.698 470.188 170.395C469.885 170.093 469.651 169.735 469.5 169.309C469.348 168.882 469.252 168.414 469.252 167.892C469.252 167.369 469.335 166.915 469.5 166.502C469.665 166.089 469.899 165.718 470.188 165.415" fill="#0B1539"/>
<path d="M487.619 166.999H482.914V162.721H481.002V173.039H482.914V168.801H487.619V173.039H489.531V162.721H487.619V166.999Z" fill="#0B1539"/>
<path d="M496.214 170.85C495.883 170.85 495.608 170.96 495.416 171.18C495.209 171.4 495.113 171.689 495.113 172.033C495.113 172.404 495.209 172.693 495.402 172.9C495.595 173.106 495.87 173.202 496.227 173.202C496.558 173.202 496.833 173.092 497.025 172.872C497.232 172.652 497.328 172.363 497.328 172.019C497.328 171.634 497.232 171.345 497.039 171.139C496.847 170.932 496.571 170.836 496.227 170.836" fill="#0B1539"/>
<path d="M506.729 162.72L502.712 173.038H504.624L505.518 170.686H509.646L510.54 173.038H512.535L508.545 162.72H506.743H506.729ZM506.151 169.021L506.839 167.219C506.908 167.026 506.99 166.806 507.073 166.558C507.155 166.311 507.238 166.063 507.334 165.788C507.431 165.527 507.499 165.265 507.582 165.018V164.949C507.678 165.21 507.761 165.485 507.857 165.774C507.953 166.077 508.05 166.352 508.132 166.613C508.215 166.861 508.284 167.054 508.325 167.177L509.027 169.021H506.165H506.151Z" fill="#0B1539"/>
<path d="M518.493 162.693H516.553V173.038H518.493V162.693Z" fill="#0B1539"/>
<path d="M455.243 106.001H450.524V141.041H455.243V106.001Z" fill="#5F38FB"/>
<path d="M482.26 118.463C480.265 115.863 477.005 114.391 473.098 114.391C466.054 114.391 460.73 120.238 460.73 128.011C460.73 135.783 466.04 141.575 473.098 141.575C477.019 141.575 480.279 140.117 482.26 137.517V141.052H486.979V114.914H482.26V118.463ZM473.978 136.953C469.094 136.953 465.545 133.197 465.545 128.011C465.545 122.824 469.094 119.013 473.978 119.013C478.862 119.013 482.246 122.962 482.246 128.011C482.246 133.059 478.697 136.953 473.978 136.953Z" fill="#5F38FB"/>
<path d="M507.387 114.393C503.549 114.393 500.22 115.892 498.239 118.465V106.001H493.52V141.041H498.087V137.491C500.082 140.092 503.397 141.55 507.401 141.55C514.445 141.55 519.769 135.717 519.769 127.985C519.769 120.254 514.458 114.365 507.401 114.365M506.507 136.955C501.788 136.955 498.239 133.103 498.239 128.013C498.239 122.922 501.87 119.015 506.507 119.015C511.39 119.015 514.926 122.799 514.926 128.013C514.926 133.227 511.377 136.955 506.507 136.955Z" fill="#5F38FB"/>
<path d="M192.974 114.914H188.256V141.052H192.974V114.914Z" fill="#000D3D"/>
<path d="M212.667 114.393C209.227 114.393 206.16 115.851 204.247 118.369V114.916H199.529V141.054H204.247V126.403C204.247 122.193 207.398 119.015 211.58 119.015C215.762 119.015 217.509 121.051 217.509 125.825V141.054H222.228V125.302C222.228 118.066 219.009 114.393 212.68 114.393" fill="#000D3D"/>
<path d="M241.485 114.393C238.046 114.393 234.978 115.865 233.066 118.369V114.916H228.347V141.054H233.066V126.403C233.066 122.193 236.216 119.015 240.398 119.015C244.58 119.015 246.328 121.051 246.328 125.825V141.054H251.046V125.302C251.046 118.066 247.827 114.393 241.499 114.393" fill="#000D3D"/>
<path d="M269.837 114.393C262.147 114.393 256.121 120.377 256.121 128.012C256.121 135.648 262.147 141.577 269.837 141.577C277.527 141.577 283.553 135.62 283.553 128.012C283.553 120.405 277.527 114.393 269.837 114.393ZM269.837 136.955C264.76 136.955 260.936 133.103 260.936 128.012C260.936 122.922 264.76 119.015 269.837 119.015C274.913 119.015 278.724 122.881 278.724 128.012C278.724 133.144 274.9 136.955 269.837 136.955Z" fill="#000D3D"/>
<path d="M300.435 131.34C299.816 132.73 299.293 134.257 298.963 135.275C298.633 134.257 298.11 132.73 297.491 131.34L290.199 114.914H285.357L296.899 141.204H301.04L312.527 114.914H307.685L300.449 131.34H300.435Z" fill="#000D3D"/>
<path d="M335.844 118.465C333.85 115.865 330.589 114.393 326.682 114.393C319.638 114.393 314.314 120.24 314.314 128.012C314.314 135.785 319.625 141.577 326.682 141.577C330.603 141.577 333.863 140.119 335.844 137.519V141.054H340.563V114.916H335.844V118.465ZM327.576 136.955C322.693 136.955 319.157 133.199 319.157 128.012C319.157 122.826 322.706 119.015 327.576 119.015C332.446 119.015 335.844 122.964 335.844 128.012C335.844 133.061 332.295 136.955 327.576 136.955Z" fill="#000D3D"/>
<path d="M390.679 114.393C382.988 114.393 376.963 120.377 376.963 128.012C376.963 135.648 382.988 141.577 390.679 141.577C398.369 141.577 404.395 135.62 404.395 128.012C404.395 120.405 398.369 114.393 390.679 114.393ZM390.679 136.955C385.602 136.955 381.778 133.103 381.778 128.012C381.778 122.922 385.602 119.015 390.679 119.015C395.755 119.015 399.58 122.881 399.58 128.012C399.58 133.144 395.755 136.955 390.679 136.955Z" fill="#000D3D"/>
<path d="M422.858 114.393C419.419 114.393 416.351 115.851 414.425 118.369V114.916H409.706V141.054H414.425V126.403C414.425 122.193 417.575 119.015 421.758 119.015C425.94 119.015 427.687 121.051 427.687 125.825V141.054H432.406V125.302C432.406 118.066 429.187 114.393 422.858 114.393Z" fill="#000D3D"/>
<path d="M354.899 137.462C353.289 137.462 352.065 136.375 352.065 133.238V119.234H360.718V115.079H352.065V109.713H347.236V133.225C347.236 139.168 349.973 141.864 354.83 141.864C356.632 141.864 358.861 141.149 360.8 139.539L357.76 136.499C356.99 137.118 355.972 137.462 354.885 137.462" fill="#000D3D"/>
<path d="M192.99 106.425H188.244V111.172H192.99V106.425Z" fill="#000D3D"/>
<path d="M371.658 114.914H366.939V141.053H371.658V114.914Z" fill="#000D3D"/>
<path d="M371.654 106.425H366.908V111.172H371.654V106.425Z" fill="#000D3D"/>
<path d="M166.532 124.834C166.848 125.316 167.027 125.88 167.027 126.471C167.027 127.256 166.724 127.998 166.16 128.549C165.596 129.099 164.867 129.402 164.083 129.402C163.505 129.402 162.927 129.237 162.446 128.906C161.964 128.59 161.593 128.122 161.359 127.586C161.139 127.049 161.084 126.458 161.194 125.894C161.304 125.33 161.593 124.793 162.006 124.394C162.418 123.981 162.941 123.706 163.505 123.596C164.069 123.486 164.661 123.541 165.197 123.761C165.734 123.981 166.188 124.367 166.518 124.848L166.532 124.834Z" fill="#E85D2E"/>
<path d="M165.217 138.633C164.681 138.413 164.089 138.358 163.525 138.468C162.961 138.578 162.438 138.867 162.025 139.266C161.613 139.679 161.338 140.202 161.214 140.766C161.104 141.33 161.159 141.921 161.379 142.458C161.599 142.994 161.97 143.448 162.466 143.779C162.947 144.095 163.511 144.274 164.103 144.274C164.887 144.274 165.63 143.971 166.18 143.421C166.73 142.871 167.047 142.128 167.047 141.344C167.047 140.766 166.882 140.188 166.552 139.706C166.221 139.225 165.767 138.854 165.231 138.62L165.217 138.633Z" fill="#23C765"/>
<path d="M150.548 138.633C150.012 138.413 149.42 138.358 148.856 138.468C148.292 138.578 147.77 138.867 147.357 139.266C146.944 139.679 146.669 140.202 146.545 140.766C146.435 141.33 146.49 141.921 146.71 142.458C146.93 142.994 147.302 143.448 147.797 143.779C148.279 144.095 148.843 144.274 149.434 144.274C150.218 144.274 150.961 143.971 151.511 143.421C152.062 142.871 152.378 142.128 152.378 141.344C152.378 140.766 152.213 140.188 151.883 139.706C151.553 139.225 151.099 138.854 150.562 138.62L150.548 138.633Z" fill="#5F38FB"/>
<path fill-rule="evenodd" clip-rule="evenodd" d="M153.148 108.258H145.705V115.701H153.148V108.258ZM159.971 108.258H167.028V115.315H159.971V108.258ZM145.898 122.949H152.956V130.007H145.898V122.949ZM131.025 108.271H138.867V116.113H131.025V108.271ZM138.056 137.231H130.998V144.288H138.056V137.231ZM130.998 122.758H138.441V130.201H130.998V122.758Z" fill="url(#paint0_linear_184_5)"/>
</g>
<path d="M14.717 43.9691C16.1773 47.3558 18.8424 49.1287 20.7914 49.9924C32.4119 55.1577 45.6006 54.9645 58.3178 54.9247C64.6536 54.902 71.0861 54.9247 77.1719 53.1802C83.2577 51.4357 89.0708 47.6285 91.6847 41.8552C92.9859 38.9856 92.9689 34.9625 90.7357 32.7407" fill="#DCFFEB"/>
<path d="M14.717 43.9691C16.1773 47.3558 18.8424 49.1287 20.7914 49.9924C32.4119 55.1577 45.6006 54.9645 58.3178 54.9247C64.6536 54.902 71.0861 54.9247 77.1719 53.1802C83.2577 51.4357 89.0708 47.6285 91.6847 41.8552C92.9859 38.9856 92.9689 34.9625 90.7357 32.7407" stroke="#23C765" stroke-width="1.10339" stroke-miterlimit="10"/>
<path d="M15.774 30.002C13.8306 32.292 13.0237 35.3832 13.001 38.3892C12.984 39.9575 13.1828 41.5827 13.9727 42.9408C15.041 44.7819 17.0184 45.8842 18.9618 46.748C30.5823 51.9132 43.771 51.72 56.4882 51.6802C62.824 51.6575 69.2565 51.6802 75.3423 49.9358C81.4281 48.1913 87.2412 44.3841 89.8551 38.6108C91.1563 35.7412 91.4461 31.9795 89.213 29.7577C88.2697 28.8201 87.0082 28.2916 85.7524 27.8541C82.6612 26.7744 79.4393 26.1323 76.206 25.6209C61.966 23.348 47.3453 23.4673 33.1393 25.9675C29.9856 26.5244 26.8092 27.2801 23.5929 27.0074C20.5813 26.7517 17.7742 27.6325 15.774 29.9963V30.002Z" fill="#F3FCF7" stroke="#23C765" stroke-width="1.10339" stroke-miterlimit="10"/>
<path d="M30.7151 39.8476C31.2338 39.3825 31.6855 38.8011 32.0701 38.1035C32.4547 37.3969 32.647 36.7217 32.647 36.0777C32.647 35.4337 32.5665 34.9374 32.4055 34.5885C32.2445 34.2397 32.0209 34.0653 31.7347 34.0653C31.4485 34.0653 31.0729 34.3247 30.6078 34.8434C30.1516 35.3532 29.7357 36.024 29.3601 36.8558C28.9934 37.6876 28.81 38.4836 28.81 39.2438C28.81 39.6284 28.8637 39.9415 28.971 40.183C29.0784 40.4155 29.2125 40.5318 29.3735 40.5318C29.7492 40.5318 30.1963 40.3037 30.7151 39.8476ZM29.3869 42.1551C28.7251 42.1551 28.1348 41.8331 27.616 41.1891C27.0973 40.5362 26.8379 39.8878 26.8379 39.2438C26.8379 38.421 26.9944 37.5803 27.3075 36.7217C27.6205 35.8541 28.0096 35.1073 28.4746 34.4812C28.9487 33.8462 29.4674 33.3274 30.0309 32.925C30.5944 32.5136 31.1131 32.3078 31.5871 32.3078C32.4547 32.3078 33.1657 32.679 33.7202 33.4214C34.2748 34.1548 34.552 34.9821 34.552 35.9033C34.552 36.8245 34.3195 37.7592 33.8544 38.7072C33.3893 39.6463 32.7454 40.4557 31.9225 41.1355C31.1086 41.8152 30.2634 42.1551 29.3869 42.1551ZM40.2557 35.2593C40.6671 35.2593 41.0561 35.4874 41.4228 35.9435C41.7985 36.3997 41.9863 36.8335 41.9863 37.2449C41.9863 37.6563 41.8924 38.1393 41.7046 38.6938C41.5168 39.2483 41.2663 39.785 40.9533 40.3037C40.6403 40.8224 40.2467 41.2607 39.7727 41.6185C39.2987 41.9762 38.8023 42.1551 38.2835 42.1551C37.7737 42.1551 37.1924 41.9091 36.5395 41.4172C36.3606 41.9181 36.213 42.1685 36.0967 42.1685C35.9089 42.1685 35.6719 42.012 35.3857 41.699C35.0995 41.3859 34.9564 41.131 34.9564 40.9342C34.9564 40.7375 35.104 40.0935 35.3991 39.0024C36.2846 35.7289 36.7273 33.3588 36.7273 31.892C36.7273 31.6236 36.857 31.4895 37.1164 31.4895C37.3221 31.4895 37.5993 31.6862 37.9481 32.0798C38.2969 32.4644 38.4714 32.8266 38.4714 33.1665C38.4714 33.9625 38.2433 35.2012 37.7871 36.8827C38.8068 35.8004 39.6296 35.2593 40.2557 35.2593ZM38.0823 40.6123C38.5742 40.6123 39.0751 40.2277 39.5849 39.4585C40.1036 38.6893 40.363 37.9336 40.363 37.1912C40.363 37.1376 40.3496 37.1063 40.3227 37.0973C40.3049 37.0794 40.2467 37.0705 40.1483 37.0705C39.6564 37.0705 39.1287 37.3656 38.5653 37.9559C38.0107 38.5462 37.5188 39.2841 37.0895 40.1695C37.4652 40.4647 37.7961 40.6123 38.0823 40.6123ZM41.106 44.3285C41.3922 44.3285 41.6963 43.841 42.0183 42.8661C42.3313 41.9002 42.6667 40.6659 43.0245 39.1634C43.3822 37.6518 43.6237 36.6904 43.7489 36.2789C43.8831 35.8586 43.9904 35.5813 44.0709 35.4472C44.1603 35.313 44.2632 35.2459 44.3795 35.2459C44.6478 35.2459 44.9116 35.4203 45.171 35.7691C45.4393 36.1179 45.5735 36.4847 45.5735 36.8692C45.5735 37.0302 44.9742 39.1678 43.7758 43.282C43.5253 44.1406 43.1497 44.7667 42.6488 45.1602C42.148 45.5627 41.5666 45.764 40.9048 45.764C40.4397 45.764 39.9791 45.5717 39.5229 45.1871C39.0668 44.8025 38.8387 44.4626 38.8387 44.1675C38.8387 43.9618 38.9147 43.7292 39.0668 43.4698C39.2188 43.2194 39.3709 43.0942 39.5229 43.0942C39.675 43.0942 39.903 43.2776 40.2071 43.6443C40.2876 43.7426 40.3368 43.8052 40.3547 43.8321C40.623 44.163 40.8735 44.3285 41.106 44.3285ZM44.6612 32.8579C44.8759 32.6075 45.086 32.4822 45.2918 32.4822C45.4975 32.4822 45.7345 32.7237 46.0028 33.2067C46.2801 33.6897 46.4187 34.0743 46.4187 34.3605C46.4187 34.5036 46.3471 34.6377 46.204 34.7629C46.0609 34.8792 45.9178 34.9374 45.7747 34.9374C45.5064 34.9374 45.2023 34.7674 44.8624 34.4275C44.5226 34.0877 44.3526 33.8015 44.3526 33.5689C44.3526 33.3364 44.4555 33.0994 44.6612 32.8579ZM52.1575 37.7547C52.1575 38.1929 51.8579 38.5865 51.2587 38.9353C50.6684 39.2841 50.0602 39.4585 49.4341 39.4585C48.808 39.4585 48.2938 39.4138 47.8913 39.3243C47.8108 39.5658 47.7705 39.8073 47.7705 40.0488C47.7705 40.2903 47.8108 40.4647 47.8913 40.572C47.9718 40.6704 48.173 40.7196 48.495 40.7196C49.1658 40.7196 49.7382 40.657 50.2122 40.5318C50.6952 40.4066 50.9456 40.3439 50.9635 40.3439C51.3302 40.3439 51.5136 40.4647 51.5136 40.7062C51.5136 41.055 51.2229 41.3859 50.6415 41.699C50.0691 42.012 49.4028 42.1685 48.6426 42.1685C47.8913 42.1685 47.2876 41.9315 46.8314 41.4575C46.3753 40.9834 46.1472 40.4244 46.1472 39.7805C46.1472 39.1276 46.335 38.4478 46.7107 37.7413C47.0953 37.0347 47.5738 36.4444 48.1462 35.9704C48.7186 35.4874 49.2865 35.2459 49.85 35.2459C50.4224 35.2459 50.9501 35.5277 51.4331 36.0911C51.916 36.6456 52.1575 37.2002 52.1575 37.7547ZM50.6013 37.54C50.6013 37.4506 50.5074 37.3209 50.3196 37.151C50.1317 36.981 49.9529 36.8961 49.7829 36.8961C49.6219 36.8961 49.4118 37.0168 49.1524 37.2583C48.893 37.4908 48.647 37.7949 48.4145 38.1706C48.495 38.1795 48.6113 38.184 48.7633 38.184C49.9886 38.184 50.6013 37.9693 50.6013 37.54ZM52.6979 40.0622C52.6979 39.4361 52.8947 38.7475 53.2882 37.9962C53.6818 37.2449 54.196 36.6009 54.8311 36.0643C55.475 35.5277 56.1056 35.2593 56.7227 35.2593C57.0357 35.2593 57.3577 35.465 57.6886 35.8765C58.0196 36.2789 58.185 36.6412 58.185 36.9631C58.185 37.1957 58.0777 37.312 57.8631 37.312C57.7557 37.312 57.6082 37.2628 57.4203 37.1644C57.2325 37.066 57.0402 37.0168 56.8434 37.0168C56.6467 37.0168 56.3649 37.1867 55.9982 37.5266C55.6405 37.8575 55.3185 38.26 55.0323 38.734C54.755 39.1991 54.6164 39.5658 54.6164 39.8341C54.6164 40.1025 54.6656 40.2769 54.764 40.3574C54.8713 40.4379 55.1217 40.4781 55.5153 40.4781C55.9178 40.4781 56.28 40.4423 56.602 40.3708C56.9329 40.2992 57.1744 40.2277 57.3264 40.1561C57.4874 40.0756 57.6305 40.0354 57.7557 40.0354C58.0062 40.0354 58.1314 40.1427 58.1314 40.3574C58.1314 40.7509 57.787 41.1534 57.0983 41.5648C56.4097 41.9673 55.721 42.1685 55.0323 42.1685C54.5941 42.1685 54.0932 41.927 53.5297 41.4441C52.9752 40.9521 52.6979 40.4915 52.6979 40.0622ZM62.7365 36.8424C62.6649 37.0839 62.5576 37.4238 62.4145 37.862C62.2803 38.2913 62.1104 38.8324 61.9047 39.4853C61.7079 40.1382 61.6095 40.4871 61.6095 40.5318C61.6095 40.5675 61.6811 40.5854 61.8242 40.5854C61.9762 40.5854 62.3295 40.4871 62.884 40.2903C63.4386 40.0846 63.765 39.9817 63.8634 39.9817C64.087 39.9817 64.1988 40.1338 64.1988 40.4379C64.1988 40.742 63.8992 41.1087 63.2999 41.538C62.7007 41.9583 62.0746 42.1685 61.4217 42.1685C61.1355 42.1685 60.7956 42.012 60.4021 41.699C60.0086 41.3859 59.8118 41.0684 59.8118 40.7464C59.8118 40.4781 59.946 39.9146 60.2143 39.056C60.4915 38.1885 60.6794 37.5937 60.7778 37.2717C60.4289 37.3701 60.1651 37.4193 59.9862 37.4193C59.8073 37.4193 59.6195 37.2985 59.4228 37.0571C59.226 36.8066 59.1276 36.5696 59.1276 36.346C59.1276 36.0598 59.8208 35.8183 61.2071 35.6216C61.377 34.7898 61.462 34.0698 61.462 33.4616C61.462 33.1933 61.5961 33.0591 61.8644 33.0591C62.097 33.0591 62.3921 33.2022 62.7499 33.4884C63.1166 33.7657 63.2999 34.043 63.2999 34.3202C63.2999 34.5885 63.2418 34.9687 63.1255 35.4606C63.5548 35.4427 63.8813 35.4337 64.1049 35.4337C64.7757 35.4337 65.1111 35.5858 65.1111 35.8899C65.1111 36.0866 64.9143 36.2566 64.5208 36.3997C64.1362 36.5338 63.5414 36.6814 62.7365 36.8424ZM66.6294 33.5689C66.6294 33.3364 66.7322 33.0994 66.9379 32.8579C67.1526 32.6075 67.3583 32.4822 67.5551 32.4822C67.7608 32.4822 68.0023 32.7237 68.2795 33.2067C68.5568 33.6897 68.6954 34.043 68.6954 34.2666C68.6954 34.4812 68.6239 34.6467 68.4808 34.7629C68.3377 34.8792 68.1901 34.9374 68.038 34.9374C67.7787 34.9374 67.4791 34.7674 67.1392 34.4275C66.7993 34.0877 66.6294 33.8015 66.6294 33.5689ZM66.8306 35.2459C67.1437 35.2459 67.4209 35.4248 67.6624 35.7826C67.9128 36.1403 68.038 36.4847 68.038 36.8156C68.038 36.9855 67.8815 37.5982 67.5685 38.6535C67.2644 39.7 66.9603 40.6928 66.6562 41.6319C66.5489 41.9807 66.3298 42.1551 65.9988 42.1551C65.8021 42.1551 65.6277 42.0835 65.4756 41.9404C65.3325 41.7884 65.261 41.5961 65.261 41.3636C65.261 41.1221 65.3728 40.5318 65.5964 39.5927C65.8289 38.6446 66.0033 37.8397 66.1196 37.1778C66.2448 36.507 66.3566 36.0196 66.455 35.7155C66.5623 35.4024 66.6875 35.2459 66.8306 35.2459ZM73.4952 35.2459C73.7277 35.2459 73.9513 35.3309 74.166 35.5008C74.3896 35.6618 74.5014 35.8317 74.5014 36.0106C74.5014 36.3326 74.233 37.0794 73.6964 38.2511C73.1687 39.4227 72.6768 40.3663 72.2207 41.0818C71.7735 41.7973 71.4246 42.1551 71.1742 42.1551C71.0401 42.1551 70.8433 42.0657 70.5839 41.8868C70.3335 41.7079 70.1725 41.529 70.1009 41.3501C69.8863 40.8314 69.6269 39.8744 69.3228 38.4791C69.0187 37.0749 68.8667 36.185 68.8667 35.8094C68.8667 35.4337 68.9919 35.2459 69.2423 35.2459C69.5464 35.2459 69.8595 35.3667 70.1814 35.6081C70.7181 36.0196 71.0177 36.5696 71.0803 37.2583C71.1071 37.5803 71.1295 37.9783 71.1474 38.4523C71.1653 38.9174 71.2055 39.3199 71.2681 39.6597C71.4828 39.2483 71.7466 38.6401 72.0597 37.8352C72.3727 37.0213 72.641 36.3863 72.8646 35.9301C73.0972 35.474 73.3073 35.2459 73.4952 35.2459ZM80.4697 37.7547C80.4697 38.1929 80.1701 38.5865 79.5709 38.9353C78.9806 39.2841 78.3724 39.4585 77.7463 39.4585C77.1202 39.4585 76.606 39.4138 76.2035 39.3243C76.123 39.5658 76.0827 39.8073 76.0827 40.0488C76.0827 40.2903 76.123 40.4647 76.2035 40.572C76.284 40.6704 76.4852 40.7196 76.8072 40.7196C77.478 40.7196 78.0504 40.657 78.5244 40.5318C79.0074 40.4066 79.2578 40.3439 79.2757 40.3439C79.6424 40.3439 79.8258 40.4647 79.8258 40.7062C79.8258 41.055 79.5351 41.3859 78.9537 41.699C78.3813 42.012 77.715 42.1685 76.9548 42.1685C76.2035 42.1685 75.5998 41.9315 75.1436 41.4575C74.6875 40.9834 74.4594 40.4244 74.4594 39.7805C74.4594 39.1276 74.6473 38.4478 75.0229 37.7413C75.4075 37.0347 75.886 36.4444 76.4584 35.9704C77.0308 35.4874 77.5987 35.2459 78.1622 35.2459C78.7346 35.2459 79.2623 35.5277 79.7453 36.0911C80.2283 36.6456 80.4697 37.2002 80.4697 37.7547ZM78.9135 37.54C78.9135 37.4506 78.8196 37.3209 78.6318 37.151C78.4439 36.981 78.2651 36.8961 78.0951 36.8961C77.9341 36.8961 77.724 37.0168 77.4646 37.2583C77.2052 37.4908 76.9593 37.7949 76.7267 38.1706C76.8072 38.1795 76.9235 38.184 77.0755 38.184C78.3008 38.184 78.9135 37.9693 78.9135 37.54Z" fill="#010E3E"/>
<path d="M98.6804 72.2988C98.6804 72.2988 94.6182 66.6156 92.3867 63.8973C90.3998 61.4697 88.7363 58.7962 86.7109 56.4078C87.9259 54.9784 89.4991 53.8578 91.2372 53.1639C94.7581 58.4706 98.279 63.7773 101.805 69.0914C102.855 65.8073 104.598 62.801 106.329 59.8251C106.679 67.9378 107.032 76.0704 108.526 84.0543C103.504 80.474 98.3662 77.0563 93.1244 73.8031C92.4127 73.3608 91.6936 72.9238 90.9745 72.4869C90.4737 72.1814 89.1654 71.6705 89.0058 71.1283C90.5631 71.0455 92.3253 71.5055 93.8839 71.7007C94.4479 71.7706 98.522 71.9119 98.693 72.3008L98.6804 72.2988Z" fill="#F1EDFF" stroke="#3918BE" stroke-width="2.19063" stroke-linecap="round" stroke-linejoin="round"/>
<path d="M558.236 242.658L558.059 243.018C559.229 238.599 559.293 233.974 559.346 229.406C559.388 226.075 559.427 216.324 559.141 213.004" stroke="#010E3E" stroke-width="0.858194" stroke-linecap="round" stroke-linejoin="round"/>
<path d="M555 216.935C556.347 215.623 557.694 214.312 559.045 213C560.434 214.011 561.82 215.026 563.21 216.037" stroke="#010E3E" stroke-width="0.858194" stroke-linecap="round" stroke-linejoin="round"/>
<path d="M563.03 240.66C563.051 237.725 563.072 234.101 563.094 231.167C564.72 231.124 566.35 231.248 567.948 231.538C568.277 234.441 568.394 237.626 568.291 240.543" fill="#F1EDFF"/>
<path d="M563.03 240.66C563.051 237.725 563.072 234.101 563.094 231.167C564.72 231.124 566.35 231.248 567.948 231.538C568.277 234.441 568.394 237.626 568.291 240.543" stroke="#3918BE" stroke-width="0.858194" stroke-linecap="round" stroke-linejoin="round"/>
<path d="M572.303 240.402C572.325 237.467 572.346 228.098 572.367 225.163C573.993 225.121 575.623 225.244 577.222 225.534C577.55 228.437 577.664 237.368 577.565 240.285C577.565 240.345 577.547 240.423 577.49 240.434C577.434 240.444 577.43 240.317 577.48 240.349" fill="#F3FCF7"/>
<path d="M572.303 240.402C572.325 237.467 572.346 228.098 572.367 225.163C573.993 225.121 575.623 225.244 577.222 225.534C577.55 228.437 577.664 237.368 577.565 240.285C577.565 240.345 577.547 240.423 577.49 240.434C577.434 240.444 577.43 240.317 577.48 240.349" stroke="#23C765" stroke-width="0.686555" stroke-miterlimit="10"/>
<path d="M581.575 239.97C581.596 237.036 581.617 220.326 581.639 217.391C583.265 217.349 584.895 217.473 586.493 217.763C586.822 220.665 586.974 237.06 586.871 239.981" fill="#F1EDFF"/>
<path d="M581.575 239.97C581.596 237.036 581.617 220.326 581.639 217.391C583.265 217.349 584.895 217.473 586.493 217.763C586.822 220.665 586.974 237.06 586.871 239.981" stroke="#3918BE" stroke-width="0.858194" stroke-linecap="round" stroke-linejoin="round"/>
<path d="M563.15 234.44C564.639 233.447 566.205 232.771 567.821 232.008Z" fill="#F1EDFF"/>
<path d="M563.15 234.44C564.639 233.447 566.205 232.771 567.821 232.008" stroke="#3918BE" stroke-width="0.858194" stroke-linecap="round" stroke-linejoin="round"/>
<path d="M572.534 228.734C574.023 227.741 575.589 227.065 577.205 226.302Z" fill="#F3FCF7"/>
<path d="M572.534 228.734C574.023 227.741 575.589 227.065 577.205 226.302" stroke="#23C765" stroke-width="0.686555" stroke-miterlimit="10"/>
<path d="M581.727 220.973C583.215 219.979 584.782 219.304 586.398 218.54Z" fill="#F1EDFF"/>
<path d="M581.727 220.973C583.215 219.979 584.782 219.304 586.398 218.54" stroke="#3918BE" stroke-width="0.858194" stroke-linecap="round" stroke-linejoin="round"/>
<path d="M581.727 223.946C583.215 222.953 584.782 222.277 586.398 221.514Z" fill="#F1EDFF"/>
<path d="M581.727 223.946C583.215 222.953 584.782 222.277 586.398 221.514" stroke="#3918BE" stroke-width="0.858194" stroke-linecap="round" stroke-linejoin="round"/>
<path d="M581.727 226.923C583.215 225.93 584.782 225.255 586.398 224.491Z" fill="#F1EDFF"/>
<path d="M581.727 226.923C583.215 225.93 584.782 225.255 586.398 224.491" stroke="#3918BE" stroke-width="0.858194" stroke-linecap="round" stroke-linejoin="round"/>
<path d="M581.727 229.901C583.215 228.907 584.782 228.232 586.398 227.468Z" fill="#F1EDFF"/>
<path d="M581.727 229.901C583.215 228.907 584.782 228.232 586.398 227.468" stroke="#3918BE" stroke-width="0.858194" stroke-linecap="round" stroke-linejoin="round"/>
<path d="M581.727 232.874C583.215 231.88 585.033 231.039 586.652 230.275Z" fill="#F1EDFF"/>
<path d="M581.727 232.874C583.215 231.88 585.033 231.039 586.652 230.275" stroke="#3918BE" stroke-width="0.858194" stroke-linecap="round" stroke-linejoin="round"/>
<path d="M581.727 235.851C583.215 234.858 585.153 234.066 586.769 233.302Z" fill="#F1EDFF"/>
<path d="M581.727 235.851C583.215 234.858 585.153 234.066 586.769 233.302" stroke="#3918BE" stroke-width="0.858194" stroke-linecap="round" stroke-linejoin="round"/>
<path d="M581.727 238.828C583.215 237.835 585.033 237.16 586.652 236.396Z" fill="#F1EDFF"/>
<path d="M581.727 238.828C583.215 237.835 585.033 237.16 586.652 236.396" stroke="#3918BE" stroke-width="0.858194" stroke-linecap="round" stroke-linejoin="round"/>
<path d="M572.534 231.414C574.023 230.42 575.589 229.745 577.205 228.981Z" fill="#F3FCF7"/>
<path d="M572.534 231.414C574.023 230.42 575.589 229.745 577.205 228.981" stroke="#23C765" stroke-width="0.686555" stroke-miterlimit="10"/>
<path d="M572.534 234.09C574.023 233.097 575.589 232.421 577.205 231.658Z" fill="#F3FCF7"/>
<path d="M572.534 234.09C574.023 233.097 575.589 232.421 577.205 231.658" stroke="#23C765" stroke-width="0.686555" stroke-miterlimit="10"/>
<path d="M572.534 236.771C574.023 235.777 575.589 235.102 577.205 234.338Z" fill="#F3FCF7"/>
<path d="M572.534 236.771C574.023 235.777 575.589 235.102 577.205 234.338" stroke="#23C765" stroke-width="0.686555" stroke-miterlimit="10"/>
<path d="M572.534 239.451C574.023 238.457 575.589 237.782 577.205 237.018Z" fill="#F3FCF7"/>
<path d="M572.534 239.451C574.023 238.457 575.589 237.782 577.205 237.018" stroke="#23C765" stroke-width="0.686555" stroke-miterlimit="10"/>
<path d="M563.15 237.301C564.639 236.307 566.205 235.632 567.821 234.868Z" fill="#F1EDFF"/>
<path d="M563.15 237.301C564.639 236.307 566.205 235.632 567.821 234.868" stroke="#3918BE" stroke-width="0.858194" stroke-linecap="round" stroke-linejoin="round"/>
<path d="M563.15 240.161C564.639 239.168 566.53 238.397 568.146 237.63Z" fill="#F1EDFF"/>
<path d="M563.15 240.161C564.639 239.168 566.53 238.397 568.146 237.63" stroke="#3918BE" stroke-width="0.858194" stroke-linecap="round" stroke-linejoin="round"/>
<path d="M561.873 225.463C567.439 222.115 575.567 217.462 580.91 213.767Z" fill="#F1EDFF"/>
<path d="M561.873 225.463C567.439 222.115 575.567 217.462 580.91 213.767" stroke="#ADBDD0" stroke-width="0.858194" stroke-linecap="round" stroke-linejoin="round"/>
<path d="M576.173 213.633L581.727 213.233C580.751 214.58 579.91 216.03 579.224 217.547" stroke="#ADBDD0" stroke-width="0.858194" stroke-linecap="round" stroke-linejoin="round"/>
<path d="M556.001 240.801C566.926 240.886 577.855 240.585 588.759 239.899C591.662 239.715 594.565 239.507 597.471 239.595" stroke="#010E3E" stroke-width="0.858194" stroke-linecap="round" stroke-linejoin="round"/>
<path d="M593.822 236.682C595.18 237.824 596.658 238.821 598.224 239.652C596.891 240.451 595.59 241.307 594.332 242.215" stroke="#010E3E" stroke-width="0.858194" stroke-linecap="round" stroke-linejoin="round"/>
<path d="M-10.1532 103.97C-12.8444 108.657 -12.4626 114.744 -9.8623 119.481C-7.703 123.409 -4.00264 126.568 0.352328 127.627C3.17078 128.314 6.16653 128.109 8.93953 127.268C13.1081 126 16.8903 123.159 18.7768 119.226C19.7542 117.185 20.2043 114.917 20.2952 112.658C20.3906 110.38 20.1224 108.053 19.2042 105.961C18.2813 103.857 16.7539 102.084 15.2038 100.388C11.7716 96.6197 6.6984 96.3424 1.86157 97.147C-2.95254 97.9471 -7.58935 99.4927 -10.1623 103.975L-10.1532 103.97Z" fill="#FFF3EF" stroke="#E85D2E" stroke-width="0.882714" stroke-linecap="round" stroke-linejoin="round"/>
<path d="M5.95779 103.502C7.35338 101.289 8.6626 99.0156 9.87636 96.6927C9.81271 96.7699 9.74907 96.8518 9.68543 96.929" fill="#FFF3EF"/>
<path d="M5.95779 103.502C7.35338 101.289 8.6626 99.0156 9.87636 96.6927C9.81271 96.7699 9.74907 96.8518 9.68543 96.929" stroke="#E85D2E" stroke-width="0.882714" stroke-linecap="round" stroke-linejoin="round"/>
<path d="M7.88013 106.694C9.63939 103.925 11.4396 101.179 13.2807 98.461Z" fill="#FFF3EF"/>
<path d="M7.88013 106.694C9.63939 103.925 11.4396 101.179 13.2807 98.461" stroke="#E85D2E" stroke-width="0.882714" stroke-linecap="round" stroke-linejoin="round"/>
<path d="M10.1045 109.825C12.1547 107.084 14.1003 104.266 15.9368 101.379Z" fill="#FFF3EF"/>
<path d="M10.1045 109.825C12.1547 107.084 14.1003 104.266 15.9368 101.379" stroke="#E85D2E" stroke-width="0.882714" stroke-linecap="round" stroke-linejoin="round"/>
<path d="M13.4531 111.857C14.7305 109.352 16.0988 106.893 17.5535 104.483C17.5853 104.433 17.6126 104.374 17.5899 104.32C17.5671 104.265 17.458 104.288 17.4762 104.343" fill="#FFF3EF"/>
<path d="M13.4531 111.857C14.7305 109.352 16.0988 106.893 17.5535 104.483C17.5853 104.433 17.6126 104.374 17.5899 104.32C17.5671 104.265 17.458 104.288 17.4762 104.343" stroke="#E85D2E" stroke-width="0.882714" stroke-linecap="round" stroke-linejoin="round"/>
<path d="M16.1766 113.553C17.4313 111.371 18.8496 109.28 20.4134 107.307Z" fill="#FFF3EF"/>
<path d="M16.1766 113.553C17.4313 111.371 18.8496 109.28 20.4134 107.307" stroke="#E85D2E" stroke-width="0.882714" stroke-linecap="round" stroke-linejoin="round"/>
<path d="M6.85714 90.192C4.16597 94.8788 4.54782 100.966 7.14807 105.703C9.30738 109.63 13.0077 112.79 17.3627 113.849C20.1812 114.535 23.1769 114.331 25.9499 113.49C30.1185 112.221 33.9007 109.38 35.7872 105.448C36.7646 103.407 37.2146 101.138 37.3056 98.8792C37.401 96.6017 37.1328 94.2742 36.2145 92.1831C35.2917 90.0783 33.7643 88.3054 32.2141 86.6098C28.782 82.8412 23.7088 82.5639 18.8719 83.3686C14.0578 84.1686 9.42102 85.7143 6.84805 90.1965L6.85714 90.192Z" stroke="#010E3E" stroke-width="1.10339" stroke-linecap="round" stroke-linejoin="round"/>
<path d="M513.371 60C513.805 68.2142 513.919 76.4411 513.722 84.6681" stroke="#ADBDD0" stroke-width="2.19063" stroke-linecap="round" stroke-linejoin="round"/>
<path d="M503 74.0024C510.384 73.9322 517.769 73.6577 525.134 73.1918C524.93 73.1918 524.726 73.1791 524.522 73.1727" stroke="#ADBDD0" stroke-width="2.19063" stroke-linecap="round" stroke-linejoin="round"/>
<path d="M508.146 78.5419C512.014 75.3187 515.805 71.9999 519.507 68.5917" stroke="#ADBDD0" stroke-width="2.19063" stroke-linecap="round" stroke-linejoin="round"/>
<path d="M507.098 68.8587C511.617 71.9223 515.9 75.3305 519.908 79.0323" stroke="#ADBDD0" stroke-width="2.19063" stroke-linecap="round" stroke-linejoin="round"/>
<path d="M88.8347 143.665C90.024 144.901 91.3247 146.1 92.9414 146.685C89.6941 147.233 88.0682 150.188 87.5757 151.177C86.9021 152.538 86.6884 153.077 86.2378 154.531C86.4654 153.337 83.2879 147.661 79 147.619C79.223 147.633 79.8641 146.95 80.0499 146.796C80.4355 146.481 80.8164 146.151 81.1881 145.816C81.9174 145.157 82.5957 144.446 83.2739 143.735C84.8348 142.104 85.7547 140 85.7547 140C85.7547 140 87.7662 142.555 88.8347 143.665Z" stroke="#ADBDD0" stroke-width="2.19063" stroke-linecap="round" stroke-linejoin="round"/>
<path d="M497.265 197.944C498.869 199.61 500.623 201.227 502.803 202.016C498.424 202.756 496.231 206.741 495.567 208.075C494.658 209.911 494.37 210.638 493.762 212.599C494.069 210.989 489.783 203.332 484 203.276C484.301 203.295 485.165 202.374 485.416 202.167C485.936 201.741 486.45 201.296 486.951 200.845C487.935 199.955 488.85 198.996 489.764 198.038C491.87 195.838 493.11 193 493.11 193C493.11 193 495.823 196.446 497.265 197.944Z" fill="#F1EDFF" stroke="#3918BE" stroke-width="2.19063" stroke-linecap="round" stroke-linejoin="round"/>
<path d="M578.183 67.8625C576.134 67.6086 575.524 66.9258 574.022 65.5105C572.881 64.4367 572.326 62.8959 571.859 61.4019C571.267 59.5022 570.756 57.4975 571.124 55.5424C571.436 53.882 572.358 52.4025 573.374 51.0514C574.465 49.6012 575.691 48.2384 577.141 47.1471C579.087 45.6822 581.387 44.7455 583.736 44.0889C590.906 42.0871 599.009 42.7495 605.201 46.8757C608.204 48.8775 610.757 51.7605 611.677 55.2506C612.313 57.6638 612.126 60.2872 611.151 62.5837C610.255 64.6964 608.735 66.4998 606.99 67.988C601.434 72.727 593.342 74.294 586.418 71.9741C585.183 71.5597 583.937 71.0257 582.639 71.1133C581.994 71.157 581.32 71.2329 580.759 71.5481C577.614 73.3252 573.931 73.8913 572.697 73.4273C571.961 73.153 572.204 73.1034 572.816 72.8933C573.429 72.6832 577.077 70.0102 578.18 67.8596L578.183 67.8625Z" fill="#FFF3EF" stroke="#E85D2E" stroke-width="0.735595" stroke-linecap="round" stroke-linejoin="round"/>
<path d="M581.112 55.8095C581.112 55.4956 581.211 55.1504 581.408 54.7737C581.605 54.3971 581.863 54.0743 582.181 53.8053C582.504 53.5362 582.82 53.4017 583.13 53.4017C583.287 53.4017 583.448 53.5048 583.614 53.7111C583.78 53.9129 583.863 54.0945 583.863 54.2559C583.863 54.3724 583.809 54.4307 583.701 54.4307C583.648 54.4307 583.574 54.4061 583.479 54.3568C583.385 54.3074 583.289 54.2828 583.19 54.2828C583.092 54.2828 582.95 54.368 582.767 54.5383C582.587 54.7042 582.426 54.906 582.282 55.1436C582.143 55.3768 582.074 55.5606 582.074 55.6951C582.074 55.8296 582.098 55.9171 582.148 55.9574C582.202 55.9978 582.327 56.018 582.524 56.018C582.726 56.018 582.908 56 583.069 55.9642C583.235 55.9283 583.356 55.8924 583.432 55.8566C583.513 55.8162 583.585 55.796 583.648 55.796C583.773 55.796 583.836 55.8498 583.836 55.9574C583.836 56.1547 583.663 56.3565 583.318 56.5627C582.973 56.7645 582.628 56.8654 582.282 56.8654C582.063 56.8654 581.812 56.7443 581.529 56.5022C581.251 56.2556 581.112 56.0247 581.112 55.8095ZM584.772 54.5316L584.732 53.7716C584.732 53.5205 584.811 53.395 584.968 53.395C585.057 53.395 585.145 53.4286 585.23 53.4959C585.319 53.5631 585.387 53.6685 585.432 53.812C585.584 53.6775 585.75 53.5699 585.929 53.4892C586.113 53.404 586.275 53.3614 586.414 53.3614C586.741 53.3614 586.904 53.4398 586.904 53.5968C586.904 53.6775 586.889 53.738 586.857 53.7784C586.831 53.8142 586.808 53.8411 586.79 53.8591C586.777 53.877 586.75 53.9017 586.709 53.933C586.674 53.9599 586.647 53.9801 586.629 53.9936C586.526 54.0608 586.452 54.1079 586.407 54.1348C586.205 54.2604 586.032 54.4128 585.889 54.5921C585.745 54.767 585.638 55.0114 585.566 55.3252C585.445 55.8409 585.326 56.2265 585.21 56.482C585.098 56.7331 584.97 56.8587 584.826 56.8587C584.687 56.8587 584.582 56.7914 584.51 56.6569C584.443 56.5224 584.409 56.3968 584.409 56.2803C584.409 56.1592 584.452 55.9799 584.537 55.7422C584.627 55.5046 584.687 55.3006 584.719 55.1302C584.755 54.9553 584.772 54.7558 584.772 54.5316ZM589.852 54.6527C589.852 54.8724 589.702 55.0697 589.402 55.2445C589.106 55.4194 588.801 55.5068 588.487 55.5068C588.173 55.5068 587.915 55.4844 587.714 55.4396C587.673 55.5606 587.653 55.6817 587.653 55.8027C587.653 55.9238 587.673 56.0112 587.714 56.065C587.754 56.1144 587.855 56.139 588.016 56.139C588.353 56.139 588.639 56.1076 588.877 56.0449C589.119 55.9821 589.245 55.9507 589.254 55.9507C589.438 55.9507 589.53 56.0112 589.53 56.1323C589.53 56.3072 589.384 56.4731 589.092 56.63C588.805 56.7869 588.471 56.8654 588.09 56.8654C587.714 56.8654 587.411 56.7466 587.182 56.5089C586.954 56.2713 586.839 55.9911 586.839 55.6682C586.839 55.3409 586.933 55.0002 587.122 54.6459C587.315 54.2917 587.554 53.9958 587.841 53.7582C588.128 53.5161 588.413 53.395 588.696 53.395C588.982 53.395 589.247 53.5362 589.489 53.8187C589.731 54.0967 589.852 54.3747 589.852 54.6527ZM589.072 54.5451C589.072 54.5002 589.025 54.4352 588.931 54.35C588.837 54.2648 588.747 54.2222 588.662 54.2222C588.581 54.2222 588.476 54.2828 588.346 54.4038C588.216 54.5204 588.092 54.6729 587.976 54.8612C588.016 54.8657 588.075 54.8679 588.151 54.8679C588.765 54.8679 589.072 54.7603 589.072 54.5451ZM592.982 54.9553C593.062 55.0271 593.103 55.0921 593.103 55.1504C593.103 55.2087 593.076 55.3297 593.022 55.5135C592.968 55.6974 592.932 55.8409 592.914 55.944C592.896 56.0426 592.881 56.1211 592.867 56.1794C592.858 56.2377 592.852 56.2847 592.847 56.3206C592.843 56.352 592.834 56.3924 592.82 56.4417C592.811 56.491 592.802 56.5313 592.793 56.5627C592.789 56.5896 592.78 56.6233 592.766 56.6636C592.757 56.6995 592.746 56.7286 592.733 56.751C592.719 56.769 592.704 56.7892 592.686 56.8116C592.659 56.8474 592.614 56.8654 592.551 56.8654C592.488 56.8654 592.41 56.8026 592.316 56.6771C592.226 56.5515 592.159 56.3991 592.114 56.2197C591.693 56.6502 591.338 56.8654 591.051 56.8654C590.859 56.8654 590.65 56.76 590.426 56.5493C590.202 56.3341 590.09 56.1211 590.09 55.9104C590.09 55.6951 590.186 55.3902 590.379 54.9957C590.572 54.6011 590.834 54.2357 591.166 53.8994C591.502 53.5631 591.834 53.395 592.161 53.395C592.349 53.395 592.567 53.5048 592.813 53.7245C593.06 53.9442 593.183 54.146 593.183 54.3298C593.183 54.5092 593.116 54.7177 592.982 54.9553ZM591.024 56.018C591.204 56.018 591.441 55.8969 591.737 55.6548C592.038 55.4082 592.224 55.0988 592.296 54.7267C592.3 54.6729 592.338 54.6415 592.41 54.6325C592.396 54.3769 592.354 54.2491 592.282 54.2491C592.103 54.2491 591.901 54.3657 591.677 54.5989C591.457 54.832 591.276 55.0809 591.132 55.3454C590.993 55.6099 590.924 55.805 590.924 55.9305C590.924 55.9664 590.928 55.9911 590.937 56.0045C590.95 56.0135 590.98 56.018 591.024 56.018ZM595.294 54.1953C595.258 54.3164 595.204 54.4868 595.132 54.7065C595.065 54.9217 594.98 55.193 594.877 55.5203C594.778 55.8476 594.729 56.0224 594.729 56.0449C594.729 56.0628 594.765 56.0718 594.836 56.0718C594.913 56.0718 595.09 56.0224 595.368 55.9238C595.646 55.8207 595.809 55.7691 595.859 55.7691C595.971 55.7691 596.027 55.8453 596.027 55.9978C596.027 56.1502 595.877 56.3341 595.576 56.5493C595.276 56.76 594.962 56.8654 594.635 56.8654C594.491 56.8654 594.321 56.7869 594.123 56.63C593.926 56.4731 593.827 56.3139 593.827 56.1525C593.827 56.018 593.895 55.7355 594.029 55.3051C594.168 54.8701 594.262 54.572 594.312 54.4106C594.137 54.4599 594.005 54.4845 593.915 54.4845C593.825 54.4845 593.731 54.424 593.632 54.3029C593.534 54.1774 593.484 54.0586 593.484 53.9465C593.484 53.803 593.832 53.682 594.527 53.5833C594.612 53.1663 594.655 52.8054 594.655 52.5005C594.655 52.366 594.722 52.2987 594.856 52.2987C594.973 52.2987 595.121 52.3705 595.3 52.5139C595.484 52.6529 595.576 52.7919 595.576 52.9309C595.576 53.0654 595.547 53.256 595.489 53.5026C595.704 53.4936 595.868 53.4892 595.98 53.4892C596.316 53.4892 596.484 53.5654 596.484 53.7178C596.484 53.8165 596.385 53.9017 596.188 53.9734C595.995 54.0406 595.697 54.1146 595.294 54.1953ZM597.245 52.5543C597.245 52.4377 597.297 52.3189 597.4 52.1978C597.507 52.0723 597.611 52.0095 597.709 52.0095C597.812 52.0095 597.933 52.1306 598.072 52.3727C598.211 52.6148 598.281 52.7919 598.281 52.904C598.281 53.0116 598.245 53.0946 598.173 53.1529C598.102 53.2112 598.028 53.2403 597.951 53.2403C597.821 53.2403 597.671 53.1551 597.501 52.9847C597.33 52.8144 597.245 52.6709 597.245 52.5543ZM597.346 53.395C597.503 53.395 597.642 53.4847 597.763 53.664C597.889 53.8434 597.951 54.016 597.951 54.1819C597.951 54.2671 597.873 54.5742 597.716 55.1033C597.564 55.6279 597.411 56.1256 597.259 56.5964C597.205 56.7712 597.095 56.8587 596.929 56.8587C596.83 56.8587 596.743 56.8228 596.667 56.751C596.595 56.6748 596.559 56.5784 596.559 56.4619C596.559 56.3408 596.615 56.0449 596.727 55.5741C596.844 55.0988 596.931 54.6953 596.99 54.3635C597.052 54.0272 597.108 53.7828 597.158 53.6304C597.212 53.4735 597.274 53.395 597.346 53.395ZM600.687 53.395C600.804 53.395 600.916 53.4376 601.023 53.5228C601.135 53.6035 601.192 53.6887 601.192 53.7784C601.192 53.9398 601.057 54.3142 600.788 54.9015C600.523 55.4889 600.277 55.9619 600.048 56.3206C599.824 56.6793 599.649 56.8587 599.524 56.8587C599.456 56.8587 599.358 56.8138 599.228 56.7241C599.102 56.6345 599.021 56.5448 598.986 56.4551C598.878 56.1951 598.748 55.7153 598.595 55.0159C598.443 54.3119 598.367 53.8658 598.367 53.6775C598.367 53.4892 598.43 53.395 598.555 53.395C598.708 53.395 598.864 53.4555 599.026 53.5766C599.295 53.7828 599.445 54.0586 599.477 54.4038C599.49 54.5652 599.501 54.7648 599.51 55.0024C599.519 55.2356 599.539 55.4373 599.571 55.6077C599.678 55.4015 599.811 55.0966 599.967 54.693C600.124 54.285 600.259 53.9667 600.371 53.738C600.488 53.5093 600.593 53.395 600.687 53.395ZM604.184 54.6527C604.184 54.8724 604.033 55.0697 603.733 55.2445C603.437 55.4194 603.132 55.5068 602.818 55.5068C602.504 55.5068 602.247 55.4844 602.045 55.4396C602.004 55.5606 601.984 55.6817 601.984 55.8027C601.984 55.9238 602.004 56.0112 602.045 56.065C602.085 56.1144 602.186 56.139 602.347 56.139C602.684 56.139 602.971 56.1076 603.208 56.0449C603.45 55.9821 603.576 55.9507 603.585 55.9507C603.769 55.9507 603.861 56.0112 603.861 56.1323C603.861 56.3072 603.715 56.4731 603.424 56.63C603.137 56.7869 602.803 56.8654 602.421 56.8654C602.045 56.8654 601.742 56.7466 601.514 56.5089C601.285 56.2713 601.171 55.9911 601.171 55.6682C601.171 55.3409 601.265 55.0002 601.453 54.6459C601.646 54.2917 601.886 53.9958 602.173 53.7582C602.46 53.5161 602.744 53.395 603.027 53.395C603.314 53.395 603.578 53.5362 603.82 53.8187C604.062 54.0967 604.184 54.3747 604.184 54.6527ZM603.403 54.5451C603.403 54.5002 603.356 54.4352 603.262 54.35C603.168 54.2648 603.078 54.2222 602.993 54.2222C602.912 54.2222 602.807 54.2828 602.677 54.4038C602.547 54.5204 602.424 54.6729 602.307 54.8612C602.347 54.8657 602.406 54.8679 602.482 54.8679C603.096 54.8679 603.403 54.7603 603.403 54.5451ZM583.553 60.4017C583.719 60.4017 583.896 60.5497 584.085 60.8456C584.278 61.1415 584.374 61.4375 584.374 61.7334C584.374 61.9127 584.298 62.1257 584.145 62.3723C583.993 62.6189 583.8 62.8521 583.567 63.0718C583.338 63.287 583.071 63.4708 582.767 63.6233C582.466 63.7757 582.179 63.8519 581.906 63.8519H581.825C581.542 65.0267 581.343 65.614 581.226 65.614C581.132 65.614 581.034 65.5356 580.93 65.3786C580.823 65.2217 580.769 65.0917 580.769 64.9886C580.769 64.8854 580.834 64.5693 580.964 64.0402C581.35 62.471 581.542 61.2873 581.542 60.4892C581.542 60.3546 581.607 60.2874 581.738 60.2874C581.845 60.2874 581.982 60.3479 582.148 60.469C582.314 60.59 582.417 60.747 582.457 60.9398C582.838 60.5811 583.204 60.4017 583.553 60.4017ZM582.033 63.0516C582.383 62.9843 582.713 62.7915 583.022 62.4732C583.336 62.1548 583.493 61.8791 583.493 61.6459C583.493 61.4128 583.428 61.2962 583.298 61.2962C583.11 61.2962 582.91 61.4038 582.699 61.619C582.614 61.7087 582.52 61.841 582.417 62.0159C582.314 62.1907 582.224 62.3947 582.148 62.6279L582.033 63.0516ZM585.101 61.5316L585.061 60.7716C585.061 60.5205 585.139 60.395 585.296 60.395C585.386 60.395 585.473 60.4286 585.558 60.4959C585.648 60.5631 585.715 60.6685 585.76 60.812C585.912 60.6775 586.078 60.5699 586.258 60.4892C586.442 60.404 586.603 60.3614 586.742 60.3614C587.069 60.3614 587.233 60.4398 587.233 60.5968C587.233 60.6775 587.217 60.738 587.186 60.7784C587.159 60.8142 587.136 60.8411 587.119 60.8591C587.105 60.877 587.078 60.9017 587.038 60.933C587.002 60.9599 586.975 60.9801 586.957 60.9936C586.854 61.0608 586.78 61.1079 586.735 61.1348C586.533 61.2604 586.361 61.4128 586.217 61.5921C586.074 61.767 585.966 62.0114 585.894 62.3252C585.773 62.8409 585.655 63.2265 585.538 63.482C585.426 63.7331 585.298 63.8587 585.155 63.8587C585.016 63.8587 584.91 63.7914 584.839 63.6569C584.771 63.5224 584.738 63.3968 584.738 63.2803C584.738 63.1592 584.78 62.9799 584.865 62.7422C584.955 62.5046 585.016 62.3006 585.047 62.1302C585.083 61.9553 585.101 61.7558 585.101 61.5316ZM588.116 63.1794C588.358 63.0718 588.569 62.8543 588.748 62.527C588.928 62.1997 589.017 61.8926 589.017 61.6056C589.017 61.3186 588.977 61.1214 588.896 61.0137C588.703 61.1258 588.511 61.3612 588.318 61.7199C588.129 62.0786 588.035 62.3947 588.035 62.6682C588.035 62.9373 588.062 63.1076 588.116 63.1794ZM587.134 62.7355C587.134 62.175 587.307 61.6437 587.652 61.1415C588.002 60.6394 588.347 60.3883 588.688 60.3883C589.028 60.3883 589.315 60.5093 589.549 60.7514C589.782 60.9891 589.898 61.2783 589.898 61.619C589.898 61.9553 589.818 62.2983 589.656 62.6481C589.495 62.9978 589.268 63.2892 588.977 63.5224C588.685 63.751 588.374 63.8654 588.042 63.8654C587.795 63.8654 587.582 63.7555 587.403 63.5358C587.224 63.3161 587.134 63.0493 587.134 62.7355ZM590.235 62.8095C590.235 62.4956 590.334 62.1504 590.531 61.7737C590.728 61.3971 590.986 61.0743 591.304 60.8053C591.627 60.5362 591.943 60.4017 592.253 60.4017C592.409 60.4017 592.571 60.5048 592.737 60.7111C592.903 60.9129 592.986 61.0945 592.986 61.2559C592.986 61.3724 592.932 61.4307 592.824 61.4307C592.77 61.4307 592.696 61.4061 592.602 61.3568C592.508 61.3074 592.412 61.2828 592.313 61.2828C592.214 61.2828 592.073 61.368 591.889 61.5383C591.71 61.7042 591.549 61.906 591.405 62.1436C591.266 62.3768 591.197 62.5606 591.197 62.6951C591.197 62.8296 591.221 62.9171 591.271 62.9574C591.324 62.9978 591.45 63.018 591.647 63.018C591.849 63.018 592.031 63 592.192 62.9642C592.358 62.9283 592.479 62.8924 592.555 62.8566C592.636 62.8162 592.708 62.796 592.77 62.796C592.896 62.796 592.959 62.8498 592.959 62.9574C592.959 63.1547 592.786 63.3565 592.441 63.5627C592.096 63.7645 591.75 63.8654 591.405 63.8654C591.185 63.8654 590.934 63.7443 590.652 63.5022C590.374 63.2556 590.235 63.0247 590.235 62.8095ZM596.538 61.6527C596.538 61.8724 596.388 62.0697 596.088 62.2445C595.792 62.4194 595.487 62.5068 595.173 62.5068C594.859 62.5068 594.602 62.4844 594.4 62.4396C594.359 62.5606 594.339 62.6817 594.339 62.8027C594.339 62.9238 594.359 63.0112 594.4 63.065C594.44 63.1144 594.541 63.139 594.702 63.139C595.039 63.139 595.326 63.1076 595.563 63.0449C595.805 62.9821 595.931 62.9507 595.94 62.9507C596.124 62.9507 596.216 63.0112 596.216 63.1323C596.216 63.3072 596.07 63.4731 595.778 63.63C595.492 63.7869 595.158 63.8654 594.776 63.8654C594.4 63.8654 594.097 63.7466 593.868 63.5089C593.64 63.2713 593.525 62.9911 593.525 62.6682C593.525 62.3409 593.62 62.0002 593.808 61.6459C594.001 61.2917 594.241 60.9958 594.528 60.7582C594.814 60.5161 595.099 60.395 595.382 60.395C595.669 60.395 595.933 60.5362 596.175 60.8187C596.417 61.0967 596.538 61.3747 596.538 61.6527ZM595.758 61.5451C595.758 61.5002 595.711 61.4352 595.617 61.35C595.523 61.2648 595.433 61.2222 595.348 61.2222C595.267 61.2222 595.162 61.2828 595.032 61.4038C594.902 61.5204 594.779 61.6729 594.662 61.8612C594.702 61.8657 594.761 61.8679 594.837 61.8679C595.451 61.8679 595.758 61.7603 595.758 61.5451ZM598.955 60.4017C599.125 60.4017 599.293 60.5026 599.459 60.7044C599.625 60.9061 599.708 61.0877 599.708 61.2491C599.708 61.3568 599.661 61.4106 599.567 61.4106C599.513 61.4106 599.435 61.3904 599.331 61.35C599.228 61.3052 599.123 61.2828 599.015 61.2828C598.912 61.2828 598.758 61.3186 598.551 61.3904C598.35 61.4621 598.249 61.5563 598.249 61.6729C598.249 61.7177 598.309 61.7827 598.43 61.8679C598.551 61.9531 598.684 62.0405 598.827 62.1302C598.971 62.2199 599.103 62.3454 599.224 62.5068C599.345 62.6638 599.405 62.8364 599.405 63.0247C599.405 63.2085 599.269 63.3946 598.995 63.5829C598.726 63.7712 598.408 63.8654 598.04 63.8654C597.677 63.8654 597.365 63.7824 597.105 63.6165C596.845 63.4506 596.715 63.2803 596.715 63.1054C596.715 62.9305 596.787 62.8431 596.93 62.8431C596.989 62.8431 597.058 62.8655 597.139 62.9104C597.363 63.0404 597.641 63.1054 597.973 63.1054C598.309 63.1054 598.477 63.0606 598.477 62.9709C598.477 62.8812 598.412 62.7826 598.282 62.675C598.157 62.5629 598.018 62.4597 597.865 62.3656C597.717 62.2714 597.578 62.1571 597.448 62.0226C597.323 61.8836 597.26 61.7491 597.26 61.619C597.26 61.3769 597.48 61.1146 597.919 60.8322C598.359 60.5452 598.704 60.4017 598.955 60.4017ZM602.094 60.4017C602.265 60.4017 602.433 60.5026 602.599 60.7044C602.765 60.9061 602.848 61.0877 602.848 61.2491C602.848 61.3568 602.801 61.4106 602.706 61.4106C602.653 61.4106 602.574 61.3904 602.471 61.35C602.368 61.3052 602.262 61.2828 602.155 61.2828C602.052 61.2828 601.897 61.3186 601.691 61.3904C601.489 61.4621 601.388 61.5563 601.388 61.6729C601.388 61.7177 601.449 61.7827 601.57 61.8679C601.691 61.9531 601.823 62.0405 601.967 62.1302C602.11 62.2199 602.242 62.3454 602.363 62.5068C602.484 62.6638 602.545 62.8364 602.545 63.0247C602.545 63.2085 602.408 63.3946 602.135 63.5829C601.866 63.7712 601.547 63.8654 601.18 63.8654C600.816 63.8654 600.505 63.7824 600.245 63.6165C599.985 63.4506 599.855 63.2803 599.855 63.1054C599.855 62.9305 599.926 62.8431 600.07 62.8431C600.128 62.8431 600.198 62.8655 600.278 62.9104C600.503 63.0404 600.781 63.1054 601.112 63.1054C601.449 63.1054 601.617 63.0606 601.617 62.9709C601.617 62.8812 601.552 62.7826 601.422 62.675C601.296 62.5629 601.157 62.4597 601.005 62.3656C600.857 62.2714 600.718 62.1571 600.588 62.0226C600.462 61.8836 600.399 61.7491 600.399 61.619C600.399 61.3769 600.619 61.1146 601.059 60.8322C601.498 60.5452 601.843 60.4017 602.094 60.4017Z" fill="#010E3E"/>
<path d="M92.4709 221.21C93.0491 222.018 93.7774 222.708 94.6393 223.215C96.4204 224.265 98.5724 224.505 100.64 224.396C102.399 224.303 104.164 223.971 105.754 223.212C107.344 222.454 108.752 221.246 109.559 219.68C110.173 218.494 110.421 217.144 110.462 215.81C110.503 214.43 110.325 213.025 109.777 211.76C109.243 210.521 108.372 209.477 107.303 208.661" fill="#DCFFEB"/>
<path d="M92.4709 221.21C93.0491 222.018 93.7774 222.708 94.6393 223.215C96.4204 224.265 98.5724 224.505 100.64 224.396C102.399 224.303 104.164 223.971 105.754 223.212C107.344 222.454 108.752 221.246 109.559 219.68C110.173 218.494 110.421 217.144 110.462 215.81C110.503 214.43 110.325 213.025 109.777 211.76C109.243 210.521 108.372 209.477 107.303 208.661" stroke="#23C765" stroke-width="0.529628" stroke-miterlimit="10"/>
<path d="M71.1794 252.541C71.7577 253.349 72.4859 254.039 73.3478 254.546C75.1289 255.596 77.2809 255.836 79.3484 255.727C81.1077 255.634 82.8724 255.302 84.4625 254.543C86.0527 253.785 87.4601 252.577 88.2675 251.011C88.8812 249.825 89.1294 248.475 89.1703 247.141C89.2112 245.761 89.0339 244.356 88.4857 243.09C87.9511 241.852 87.081 240.808 86.0118 239.992" fill="#DCFFEB"/>
<path d="M71.1794 252.541C71.7577 253.349 72.4859 254.039 73.3478 254.546C75.1289 255.596 77.2809 255.836 79.3484 255.727C81.1077 255.634 82.8724 255.302 84.4625 254.543C86.0527 253.785 87.4601 252.577 88.2675 251.011C88.8812 249.825 89.1294 248.475 89.1703 247.141C89.2112 245.761 89.0339 244.356 88.4857 243.09C87.9511 241.852 87.081 240.808 86.0118 239.992" stroke="#23C765" stroke-width="0.529628" stroke-miterlimit="10"/>
<path d="M112.565 252.541C113.143 253.349 113.871 254.039 114.733 254.546C116.514 255.596 118.666 255.836 120.734 255.727C122.493 255.634 124.258 255.302 125.848 254.543C127.438 253.785 128.845 252.577 129.653 251.011C130.267 249.825 130.515 248.475 130.556 247.141C130.597 245.761 130.419 244.356 129.871 243.09C129.336 241.852 128.466 240.808 127.397 239.992" fill="#DCFFEB"/>
<path d="M112.565 252.541C113.143 253.349 113.871 254.039 114.733 254.546C116.514 255.596 118.666 255.836 120.734 255.727C122.493 255.634 124.258 255.302 125.848 254.543C127.438 253.785 128.845 252.577 129.653 251.011C130.267 249.825 130.515 248.475 130.556 247.141C130.597 245.761 130.419 244.356 129.871 243.09C129.336 241.852 128.466 240.808 127.397 239.992" stroke="#23C765" stroke-width="0.529628" stroke-miterlimit="10"/>
<path d="M109.821 228.247C109.706 226.496 109.501 224.167 109.387 222.416C109.384 222.367 109.381 222.312 109.414 222.274C109.469 222.211 109.572 222.247 109.646 222.288C111.157 223.095 113.391 223.676 115.016 224.211C114.329 224.344 113.339 224.77 112.649 224.903C112.551 224.922 112.431 224.969 112.431 225.067C112.431 225.119 112.469 225.165 112.504 225.203C112.78 225.506 113.069 225.795 113.331 226.112C113.874 226.766 116.748 229.827 117.338 230.918C117.692 230.102 118.27 229.368 118.57 228.648C118.611 230.618 118.832 232.521 118.832 234.532C116.942 233.626 115.161 233.168 113.448 232.251C114.275 232.077 115.259 231.763 116.102 231.73C114.596 230.427 113.726 228.542 112.363 227.091C112.123 226.834 111.885 226.581 111.656 226.316C111.501 226.136 111.277 225.874 111.01 226.003C110.759 226.123 109.801 227.98 109.821 228.245V228.247Z" fill="#F1EDFF" stroke="#3918BE" stroke-width="0.662035" stroke-linecap="round" stroke-linejoin="round"/>
<path d="M90.0186 228.247C90.1331 226.496 90.3377 224.167 90.4523 222.416C90.455 222.367 90.4577 222.312 90.425 222.274C90.3704 222.211 90.2668 222.247 90.1931 222.288C88.6821 223.095 86.4482 223.676 84.8226 224.211C85.51 224.344 86.5 224.77 87.1901 224.903C87.2883 224.922 87.4083 224.969 87.4083 225.067C87.4083 225.119 87.3701 225.165 87.3347 225.203C87.0592 225.506 86.7701 225.795 86.5082 226.112C85.9654 226.766 83.0906 229.827 82.5015 230.918C82.1469 230.102 81.5687 229.368 81.2686 228.648C81.2277 230.618 81.0068 232.521 81.0068 234.532C82.897 233.626 84.6781 233.168 86.391 232.251C85.5645 232.077 84.5799 231.763 83.7371 231.73C85.2427 230.427 86.1127 228.542 87.4765 227.091C87.7165 226.834 87.9538 226.581 88.1829 226.316C88.3384 226.136 88.5621 225.874 88.8294 226.003C89.0803 226.123 90.0377 227.98 90.0186 228.245V228.247Z" fill="#F1EDFF" stroke="#3918BE" stroke-width="0.662035" stroke-linecap="round" stroke-linejoin="round"/>
<path d="M102.151 249.732C103.572 248.701 105.492 247.37 106.913 246.339C106.954 246.309 106.995 246.277 107.003 246.227C107.017 246.146 106.924 246.088 106.845 246.056C105.257 245.409 103.383 244.065 101.932 243.154C102.268 243.77 102.573 244.801 102.912 245.417C102.958 245.505 103.002 245.627 102.925 245.69C102.884 245.723 102.827 245.723 102.772 245.72C102.363 245.701 101.954 245.663 101.545 245.663C100.694 245.663 96.5046 245.406 95.2881 245.652C95.6891 244.858 95.8827 243.947 96.2455 243.254C94.7044 244.482 93.1006 245.526 91.5541 246.811C93.4579 247.687 94.9499 248.761 96.7474 249.495C96.3546 248.748 95.9673 247.79 95.4545 247.122C97.4183 247.447 102.11 247.076 102.462 247.081C102.699 247.084 103.043 247.092 103.116 247.378C103.184 247.649 102.366 249.571 102.151 249.727V249.732Z" fill="#F1EDFF" stroke="#3918BE" stroke-width="0.662035" stroke-linecap="round" stroke-linejoin="round"/>
<path d="M89.424 213.295C88.8266 216.432 90.234 219.926 92.9834 221.548C94.7645 222.599 96.9165 222.839 98.984 222.729C100.743 222.637 102.508 222.304 104.098 221.546C105.688 220.787 107.096 219.579 107.903 218.014C108.517 216.827 108.765 215.477 108.806 214.143C108.847 212.763 108.669 211.358 108.121 210.093C106.853 207.152 103.692 205.311 100.5 205.03C95.7546 204.61 90.3186 208.598 89.424 213.295Z" fill="#F3FCF7" stroke="#23C765" stroke-width="0.529628" stroke-miterlimit="10"/>
<path d="M68.1358 244.624C67.5384 247.76 68.9459 251.254 71.6952 252.877C73.4763 253.927 75.6283 254.167 77.6958 254.058C79.4551 253.966 81.2198 253.633 82.8099 252.875C84.4001 252.116 85.8075 250.908 86.6148 249.342C87.2285 248.156 87.4767 246.806 87.5177 245.472C87.5586 244.092 87.3813 242.687 86.833 241.422C85.5647 238.481 82.4035 236.64 79.2123 236.359C74.4664 235.939 69.0304 239.927 68.1358 244.624Z" fill="#F3FCF7" stroke="#23C765" stroke-width="0.529628" stroke-miterlimit="10"/>
<path d="M109.518 244.624C108.921 247.76 110.328 251.254 113.077 252.877C114.858 253.927 117.01 254.167 119.078 254.058C120.837 253.966 122.602 253.633 124.192 252.875C125.782 252.116 127.19 250.908 127.997 249.342C128.611 248.156 128.859 246.806 128.9 245.472C128.941 244.092 128.763 242.687 128.215 241.422C126.947 238.481 123.786 236.64 120.594 236.359C115.849 235.939 110.413 239.927 109.518 244.624Z" fill="#F3FCF7" stroke="#23C765" stroke-width="0.529628" stroke-miterlimit="10"/>
<path d="M98.91 213.539C98.91 213.128 98.8516 212.922 98.7348 212.922C98.6612 212.922 98.5639 213 98.4427 213.156C98.3216 213.307 98.2004 213.5 98.0793 213.733C97.9581 213.963 97.8543 214.233 97.7677 214.545C97.6812 214.856 97.6379 215.151 97.6379 215.428C97.6379 215.843 97.7071 216.051 97.8456 216.051C97.9624 216.051 98.1052 215.908 98.274 215.622C98.4427 215.332 98.5898 214.986 98.7153 214.584C98.8451 214.177 98.91 213.829 98.91 213.539ZM99.2735 215.609C99.1091 215.955 98.8992 216.247 98.6439 216.485C98.3886 216.719 98.1139 216.836 97.8196 216.836C97.5254 216.836 97.2614 216.682 97.0278 216.375C96.7985 216.064 96.6838 215.728 96.6838 215.369C96.6838 215.006 96.7465 214.618 96.872 214.207C96.9975 213.792 97.1576 213.431 97.3523 213.123C97.547 212.812 97.7655 212.559 98.0079 212.364C98.2545 212.169 98.4925 212.072 98.7218 212.072C99.0637 212.072 99.3341 212.193 99.5331 212.435C99.7322 212.678 99.8317 213.024 99.8317 213.474C99.8317 213.781 99.7798 214.127 99.6759 214.512C99.5764 214.897 99.4423 215.263 99.2735 215.609ZM101.725 212.714C101.725 212.987 101.686 213.294 101.608 213.636C101.53 213.974 101.457 214.274 101.387 214.538C101.318 214.802 101.255 215.058 101.199 215.304C101.147 215.551 101.102 215.752 101.063 215.908C101.028 216.059 100.987 216.215 100.94 216.375C100.844 216.682 100.741 216.836 100.628 216.836C100.529 216.836 100.414 216.773 100.284 216.648C100.159 216.518 100.096 216.401 100.096 216.297C100.096 216.193 100.143 215.955 100.239 215.583C100.334 215.211 100.429 214.724 100.524 214.123C100.624 213.517 100.673 212.888 100.673 212.234C100.673 212.109 100.736 212.046 100.862 212.046C100.992 212.046 101.167 212.137 101.387 212.319C101.612 212.5 101.725 212.632 101.725 212.714Z" fill="#010E3E"/>
<path d="M118.014 245.195C118.014 244.784 117.955 244.579 117.838 244.579C117.765 244.579 117.667 244.657 117.546 244.812C117.425 244.964 117.304 245.156 117.183 245.39C117.062 245.619 116.958 245.89 116.871 246.201C116.785 246.513 116.741 246.807 116.741 247.084C116.741 247.5 116.811 247.707 116.949 247.707C117.066 247.707 117.209 247.564 117.378 247.279C117.546 246.989 117.693 246.643 117.819 246.24C117.949 245.834 118.014 245.485 118.014 245.195ZM118.377 247.266C118.213 247.612 118.003 247.904 117.747 248.142C117.492 248.376 117.217 248.493 116.923 248.493C116.629 248.493 116.365 248.339 116.131 248.032C115.902 247.72 115.787 247.385 115.787 247.026C115.787 246.662 115.85 246.275 115.976 245.864C116.101 245.449 116.261 245.087 116.456 244.78C116.651 244.468 116.869 244.215 117.111 244.021C117.358 243.826 117.596 243.729 117.825 243.729C118.167 243.729 118.438 243.85 118.637 244.092C118.836 244.334 118.935 244.681 118.935 245.131C118.935 245.438 118.883 245.784 118.779 246.169C118.68 246.554 118.546 246.92 118.377 247.266ZM120.076 247.61C120.85 247.467 121.436 247.396 121.835 247.396C122.237 247.396 122.438 247.482 122.438 247.655C122.438 247.82 122.094 247.997 121.406 248.188C120.722 248.378 120.197 248.473 119.829 248.473C119.678 248.473 119.494 248.376 119.277 248.181C119.061 247.986 118.953 247.813 118.953 247.662C118.953 247.562 119.23 247.285 119.784 246.831C120.013 246.641 120.242 246.442 120.472 246.234C120.701 246.022 120.896 245.806 121.056 245.585C121.22 245.364 121.302 245.167 121.302 244.994C121.302 244.817 121.22 244.728 121.056 244.728C120.93 244.728 120.818 244.776 120.718 244.871C120.623 244.962 120.547 245.055 120.491 245.15C120.439 245.241 120.4 245.286 120.374 245.286C120.262 245.286 120.119 245.226 119.946 245.105C119.777 244.979 119.693 244.871 119.693 244.78C119.693 244.533 119.822 244.3 120.082 244.079C120.346 243.854 120.662 243.742 121.03 243.742C121.402 243.742 121.694 243.856 121.906 244.086C122.118 244.311 122.224 244.598 122.224 244.949C122.224 245.42 122.021 245.894 121.614 246.37C121.211 246.846 120.699 247.259 120.076 247.61Z" fill="#010E3E"/>
<path d="M76.5618 245.195C76.5618 244.784 76.5034 244.579 76.3866 244.579C76.313 244.579 76.2157 244.657 76.0945 244.812C75.9734 244.964 75.8522 245.156 75.731 245.39C75.6099 245.619 75.506 245.89 75.4195 246.201C75.333 246.513 75.2897 246.807 75.2897 247.084C75.2897 247.5 75.3589 247.707 75.4974 247.707C75.6142 247.707 75.757 247.564 75.9258 247.279C76.0945 246.989 76.2416 246.643 76.3671 246.24C76.4969 245.834 76.5618 245.485 76.5618 245.195ZM76.9253 247.266C76.7609 247.612 76.551 247.904 76.2957 248.142C76.0404 248.376 75.7657 248.493 75.4714 248.493C75.1772 248.493 74.9132 248.339 74.6796 248.032C74.4503 247.72 74.3356 247.385 74.3356 247.026C74.3356 246.662 74.3983 246.275 74.5238 245.864C74.6493 245.449 74.8094 245.087 75.0041 244.78C75.1988 244.468 75.4173 244.215 75.6597 244.021C75.9063 243.826 76.1443 243.729 76.3736 243.729C76.7154 243.729 76.9859 243.85 77.1849 244.092C77.384 244.334 77.4835 244.681 77.4835 245.131C77.4835 245.438 77.4316 245.784 77.3277 246.169C77.2282 246.554 77.0941 246.92 76.9253 247.266ZM78.4421 246.273V246.247C78.4421 246.195 78.4659 246.152 78.5135 246.117C78.5698 246.048 78.6801 245.953 78.8445 245.831C79.009 245.71 79.1626 245.598 79.3054 245.494C79.4525 245.386 79.5844 245.258 79.7013 245.111C79.8181 244.964 79.8765 244.821 79.8765 244.683C79.8765 244.631 79.857 244.605 79.8181 244.605C79.6753 244.605 79.4719 244.676 79.208 244.819C78.944 244.957 78.7753 245.027 78.7017 245.027C78.6282 245.027 78.5113 244.951 78.3512 244.8C78.1911 244.644 78.1111 244.529 78.1111 244.456C78.1111 244.334 78.2128 244.218 78.4161 244.105C78.6195 243.988 78.851 243.899 79.1106 243.839C79.3746 243.774 79.6061 243.742 79.8051 243.742C80.0907 243.742 80.3373 243.845 80.545 244.053C80.7571 244.261 80.8631 244.479 80.8631 244.709C80.8631 244.938 80.7657 245.176 80.571 245.423C80.3806 245.665 80.1426 245.883 79.857 246.078C80.4628 246.212 80.7657 246.487 80.7657 246.902C80.7657 247.166 80.6121 247.426 80.3049 247.681C80.002 247.932 79.6342 248.131 79.2015 248.278C78.7688 248.426 78.3599 248.499 77.9748 248.499C77.5075 248.499 77.2738 248.397 77.2738 248.194C77.2738 248.082 77.6632 247.911 78.4421 247.681C78.732 247.599 78.9981 247.487 79.2404 247.344C79.4871 247.201 79.6104 247.054 79.6104 246.902C79.6104 246.82 79.5671 246.757 79.4806 246.714C79.3941 246.667 79.2967 246.636 79.1885 246.623C78.8597 246.584 78.6455 246.526 78.546 246.448C78.4767 246.405 78.4421 246.346 78.4421 246.273Z" fill="#010E3E"/>
</g>
<defs>
<linearGradient id="paint0_linear_184_5" x1="131.198" y1="108.065" x2="166.966" y2="144.522" gradientUnits="userSpaceOnUse">
<stop stop-color="#3918BE"/>
<stop offset="1" stop-color="#5F38FB"/>
</linearGradient>
<clipPath id="clip0_184_5">
<path d="M650 240C650 262.091 632.091 280 610 280H40C17.9086 280 0 262.091 0 240V0H650V240Z" fill="white"/>
</clipPath>
<clipPath id="clip1_184_5">
<rect width="388.753" height="67.2043" fill="white" transform="translate(131 106)"/>
</clipPath>
</defs>
</svg>
